<?xml version="1.0" encoding="UTF-8"?>
<svg xmlns="http://www.w3.org/2000/svg" version="1.1" viewBox="0 0 705 306.8">
  <!-- Generator: Adobe Illustrator 28.7.1, SVG Export Plug-In . SVG Version: 1.2.0 Build 142)  -->
  <g>
    <g id="Layer_1">
      <path d="M85.1,66.1c-2.8,15.9,3.8,24.9,10.3,33.3,38.8,49.4,83.7,92,139.7,121.4,108.1,56.8,233.8,42.9,328.3-36.9,39.4-33.3,73.9-70.9,96.6-118,3.9-8.1,8.5-16.2,14.2-23.1,4.7-5.7,12.1-7.6,19.8-5,8.3,2.8,11.7,10.1,10.7,17.1-1.5,10.6-4.4,21.6-9.1,31.2-95.8,197.1-333.9,292.5-538.7,139-24.6-18.4-54.3-50.2-81.4-72.8,3.3,24.1,10.5,46.5,14.1,61.4,5.1,21.3,11.4,42.4,16.5,63.7,2.7,11.2,2,22.3-10.4,27.9-10.6,4.8-22.2-3-28.4-18.7-2-5.1-3.4-10.4-5-15.7C44.1,207.9,25.4,144.7,7.7,81.3,3.3,65.7.5,49.1,0,32.9-.6,12.1,14.5-1.3,35.3,0c10.8.7,21.9,3,31.9,6.9,44.2,17.4,88.1,35.7,131.9,53.9,4.9,2,9.9,5.2,13,9.3,4.4,5.9,5.9,13.3,3,20.7-2.9,7.5-8.8,11.1-16.7,11.9-15.3,1.6-28.6-5.2-42.2-10.1-23.6-8.5-47.1-17.6-71.2-26.6Z"/>
    </g>
  </g>
</svg>