<?xml version="1.0" encoding="UTF-8"?>
<svg xmlns="http://www.w3.org/2000/svg" version="1.1" viewBox="0 0 1177 272.3">
  <!-- Generator: Adobe Illustrator 28.7.1, SVG Export Plug-In . SVG Version: 1.2.0 Build 142)  -->
  <g>
    <g id="Layer_1">
      <path d="M118.6,141.8c16.2,26.2,32.6,52.4,48.6,78.7,4.7,7.7,9.2,15.8,12.5,24.2,3.8,9.7,0,18.4-8.1,24-8.4,5.8-18.1,3.9-25.3-2.2-6.8-5.9-12.3-13.6-17.3-21.2-35.9-55.2-71.6-110.6-107.3-166C11.7,63.8,3.2,47.6.3,29.1-2.1,13.5,9.9-1.1,25.3,0c10.8.8,21.7,3.3,32.1,6.5,63.1,19.3,127.3,34.4,192.4,45.3,7.1,1.2,14.3,2.9,20.6,6.2,7.1,3.6,9.8,11.6,8,18.8-1.1,4.6-5.8,9.6-10.2,11.8-13.9,6.7-28.6,3.6-43.1,1.2-30.2-5.1-60.5-10.3-90.4-15.3-3.4,12,4.5,14.4,10.4,17.7,197.7,112.8,409.5,157.2,634.7,122.8,126.5-19.3,242.8-68.5,345.3-147.2,8.6-6.6,17.3-13.4,26.7-18.8,6.8-3.9,14.3-1.9,20.1,3.4,6.3,5.7,6.2,13.3,3.1,20.1-7.9,17.3-23.6,27.6-38,38.7-82.4,63.3-173.9,108.1-274.9,133-240.2,59.2-468.6,21.7-688.6-84.3-16.3-7.9-32.4-16.1-48.6-24.2-2.1,2-4.1,4.1-6.2,6.1Z"/>
    </g>
  </g>
</svg>