<?xml version="1.0" encoding="UTF-8"?>
<svg id="Layer_1" data-name="Layer 1" xmlns="http://www.w3.org/2000/svg" viewBox="0 0 212.13 220.95">
  <defs>
    <style>
      .cls-1 {
        fill: #000;
      }

      .cls-1, .cls-2 {
        stroke-width: 0px;
      }

      .cls-3 {
        fill: none;
        stroke: #000;
        stroke-miterlimit: 10;
        stroke-width: 8px;
      }

      .cls-2 {
        fill: #fff;
      }
    </style>
  </defs>
  <g>
    <rect class="cls-2" x="4" y="4" width="175.82" height="175.82" rx="20.04" ry="20.04"/>
    <path class="cls-1" d="M159.78,8c8.84,0,16.04,7.2,16.04,16.04v135.74c0,8.84-7.2,16.04-16.04,16.04H24.04c-8.84,0-16.04-7.2-16.04-16.04V24.04c0-8.84,7.2-16.04,16.04-16.04h135.74M159.78,0H24.04C10.76,0,0,10.76,0,24.04v135.74c0,13.28,10.76,24.04,24.04,24.04h135.74c13.28,0,24.04-10.76,24.04-24.04V24.04c0-13.28-10.76-24.04-24.04-24.04h0Z"/>
  </g>
  <path class="cls-3" d="M11.12,176.38c-1.37,13.21,8.22,25.03,21.42,26.4l135.01,14.04c13.21,1.37,25.03-8.22,26.4-21.42l14.04-135.01c1.37-13.21-8.22-25.03-21.42-26.4l-6.29-.56"/>
  <path class="cls-1" d="M83.83,110.22v-1.56c0-3.6.62-6.78,1.86-9.54,1.24-2.76,2.8-5.24,4.68-7.44,1.88-2.2,3.86-4.26,5.94-6.18,2.8-2.8,5.34-5.52,7.62-8.16,2.28-2.64,3.42-5.72,3.42-9.24,0-2.16-.52-4.14-1.56-5.94-1.04-1.8-2.58-3.26-4.62-4.38-2.04-1.12-4.54-1.68-7.5-1.68-4.08,0-7.6,1.26-10.56,3.78-2.96,2.52-4.8,5.9-5.52,10.14l-10.56-2.4c.72-4.4,2.3-8.24,4.74-11.52,2.44-3.28,5.56-5.86,9.36-7.74,3.8-1.88,8.02-2.82,12.66-2.82,5.2,0,9.7,1.06,13.5,3.18,3.8,2.12,6.74,4.86,8.82,8.22,2.08,3.36,3.12,7.04,3.12,11.04,0,3.44-.72,6.5-2.16,9.18-1.44,2.68-3.26,5.16-5.46,7.44-2.2,2.28-4.38,4.5-6.54,6.66-2.64,2.56-4.94,5.22-6.9,7.98-1.96,2.76-2.94,5.98-2.94,9.66v1.32h-11.4ZM83.95,136.38v-14.4h11.64v14.4h-11.64Z"/>
</svg>