<?xml version="1.0" encoding="UTF-8"?>
<svg xmlns="http://www.w3.org/2000/svg" xmlns:xlink="http://www.w3.org/1999/xlink" version="1.1" viewBox="0 0 40 40">
  <defs>
    <style>
      .cls-1 {
        fill: none;
      }

      .cls-2 {
        fill: #0c0c0c;
      }

      .cls-3 {
        clip-path: url(#clippath);
      }
    </style>
    <clipPath id="clippath">
      <rect class="cls-1" x="0" y="0" width="39.6" height="39.6"/>
    </clipPath>
  </defs>
  <!-- Generator: Adobe Illustrator 28.6.0, SVG Export Plug-In . SVG Version: 1.2.0 Build 709)  -->
  <g>
    <g id="Layer_1">
      <g class="cls-3">
        <g>
          <path class="cls-2" d="M19.9,33.7c-7.6,0-13.7-6.1-13.7-13.7s6.2-13.7,13.7-13.7,13.7,6.1,13.7,13.7-6.1,13.7-13.7,13.7h0Z"/>
          <path class="cls-2" d="M19.9,7.4c7,0,12.6,5.7,12.6,12.6s-5.7,12.6-12.6,12.6-12.6-5.7-12.6-12.6,5.7-12.6,12.6-12.6ZM19.9,5.2c-8.1,0-14.8,6.6-14.8,14.8s6.6,14.8,14.8,14.8,14.8-6.6,14.8-14.8-6.5-14.8-14.8-14.8Z"/>
          <path class="cls-2" d="M19.9,1c5.1,0,9.9,2,13.4,5.6,3.6,3.6,5.6,8.4,5.6,13.4s-2,9.9-5.6,13.4c-3.6,3.6-8.4,5.6-13.4,5.6s-9.9-2-13.4-5.6C2.9,29.9.9,25.1.9,20s2-9.9,5.6-13.4C10,3,14.8,1,19.9,1ZM19.9.2C9,.2.2,9.1.2,20s8.9,19.8,19.8,19.8,19.8-8.9,19.8-19.8S30.9.2,19.9.2Z"/>
        </g>
      </g>
    </g>
  </g>
</svg>