<svg width="32" height="24" viewBox="0 0 32 24" fill="none" xmlns="http://www.w3.org/2000/svg">
<g clip-path="url(#clip0_304_1676)">
<path d="M16.0002 12.7432C15.3468 12.7432 0 12.7891 0 16.7625C0 19.882 9.35864 20.5767 13.3499 20.731L12.0379 22.0148C11.6918 22.3522 11.6903 22.9025 12.0341 23.2427V23.2434C12.3777 23.5839 12.937 23.586 13.2824 23.2471L15.7967 20.7881C16.1424 20.4498 16.173 19.8743 15.8591 19.5071C15.2238 18.7643 14.1966 17.5714 13.5581 16.8296C13.2427 16.4645 12.6855 16.4183 12.3136 16.7299C11.9423 17.0406 11.8966 17.5885 12.2123 17.9545L13.1001 18.9841C7.47088 18.7587 3.95848 17.9262 2.50796 17.2499C2.06725 17.0447 2.06284 16.4751 2.50354 16.2684C4.25155 15.4523 8.92708 14.4802 16.0005 14.4802C23.0739 14.4802 27.7491 15.4526 29.4968 16.2684C29.9375 16.4745 29.9327 17.0447 29.4914 17.2499C27.9772 17.9551 24.2241 18.8329 18.1561 19.0117C17.6693 19.0263 17.2803 19.4214 17.2895 19.9016C17.2983 20.3812 17.7002 20.7633 18.1879 20.7474C21.8603 20.6298 32 20.0093 32 16.7622C32 12.7888 16.6535 12.7432 16.0002 12.7432Z" fill="black"/>
<path d="M2.42056 11.3079V9.59383H2.6171C3.55372 10.1212 4.43072 10.3844 5.24841 10.3844C5.89448 10.3844 6.39954 10.2531 6.76328 9.98928C7.12701 9.72606 7.30904 9.34054 7.30904 8.83366C7.30904 8.43138 7.16707 8.12036 6.88284 7.90153C6.5986 7.6827 6.01089 7.5725 5.1197 7.5725H4.57993V6.2024H5.0891C6.46295 6.2024 7.15004 5.78988 7.15004 4.96515C7.15004 4.61905 7.00272 4.35645 6.70839 4.17766C6.41374 3.99856 5.9948 3.90917 5.45094 3.90917C4.71874 3.90917 3.86004 4.16649 2.87483 4.68175H2.69092V2.98573C3.72975 2.60363 4.72946 2.41211 5.69006 2.41211C6.827 2.41211 7.68665 2.61728 8.26932 3.02794C8.85198 3.4386 9.14347 3.98335 9.14347 4.66344C9.14347 5.17032 8.98196 5.61388 8.65892 5.99443C8.33556 6.37467 7.90464 6.6292 7.36456 6.75802V6.84245C7.98193 6.95109 8.47058 7.1873 8.83085 7.55171C9.19079 7.91581 9.37061 8.38575 9.37061 8.96123C9.37061 9.84618 9.02738 10.5548 8.3403 11.0859C7.65321 11.617 6.7229 11.8827 5.54905 11.8827C4.4121 11.8821 3.36917 11.6906 2.42088 11.3088L2.42056 11.3079Z" fill="black"/>
<path d="M17.2948 2.56248V4.11944H17.1166C16.7286 3.93444 16.2595 3.84194 15.7118 3.84194C14.0399 3.84194 13.1073 4.70299 12.9149 6.42509C13.7247 5.95018 14.4563 5.71272 15.1106 5.71272C16.015 5.71272 16.7434 5.96818 17.2974 6.47941C17.851 6.99064 18.1283 7.70673 18.1283 8.62831C18.1283 9.54988 17.7964 10.3675 17.1314 10.9728C16.4667 11.5787 15.6134 11.8813 14.5705 11.8813C13.3723 11.8813 12.4556 11.5181 11.8196 10.7915C11.1836 10.0655 10.8656 9.01662 10.8656 7.64434C10.8656 5.95856 11.2858 4.66481 12.1262 3.76341C12.9666 2.86232 14.1859 2.41162 15.785 2.41162C16.3497 2.41162 16.8526 2.46191 17.2945 2.56248H17.2948ZM12.9092 7.40875L12.9029 7.65614C12.8988 7.78868 12.8969 7.89545 12.8969 7.97616C12.8969 9.67435 13.4572 10.5227 14.5777 10.5227C15.0276 10.5227 15.3907 10.3662 15.6661 10.0518C15.9424 9.7383 16.0803 9.29753 16.0803 8.73043C16.0803 7.62385 15.4932 7.07072 14.32 7.07072C13.8622 7.07072 13.3916 7.1834 12.9095 7.40906L12.9092 7.40875Z" fill="black"/>
<path d="M22.9073 11.8812C21.6521 11.8812 20.7309 11.5056 20.1441 10.756C19.557 10.0051 19.264 8.80107 19.264 7.14353C19.264 5.486 19.558 4.30306 20.1473 3.54662C20.7366 2.79018 21.6558 2.41211 22.9073 2.41211C24.1588 2.41211 25.0787 2.78956 25.6676 3.54383C26.2563 4.2981 26.5509 5.49624 26.5509 7.13795C26.5509 8.77965 26.2585 10.0157 25.6739 10.7622C25.0891 11.5084 24.167 11.8812 22.9073 11.8812ZM22.9073 3.8176C22.3344 3.8176 21.9249 4.08206 21.6776 4.61129C21.43 5.14021 21.3066 5.98636 21.3066 7.14912C21.3066 8.31188 21.4331 9.15275 21.6868 9.68384C21.9404 10.2149 22.3473 10.4806 22.9076 10.4806C23.4679 10.4806 23.8748 10.2112 24.1285 9.67236C24.3821 9.13288 24.5089 8.28829 24.5089 7.13732C24.5089 5.98636 24.3849 5.13556 24.1379 4.6085C23.89 4.08144 23.4799 3.8176 22.9076 3.8176H22.9073Z" fill="black"/>
<path d="M30.4356 2.41175C30.4356 3.46742 29.5659 4.32319 28.4929 4.32319C27.42 4.32319 26.55 3.46742 26.55 2.41175C26.55 1.35608 27.42 0.5 28.4929 0.5C29.5659 0.5 30.4356 1.35577 30.4356 2.41175Z" fill="black"/>
</g>
<defs>
<clipPath id="clip0_304_1676">
<rect width="32" height="23" fill="white" transform="translate(0 0.5)"/>
</clipPath>
</defs>
</svg>
