<svg width="40" height="40" viewBox="0 0 40 40" fill="none" xmlns="http://www.w3.org/2000/svg">
<rect x="40" width="40" height="40" rx="12" transform="rotate(90 40 0)" fill="white"/>
<rect x="39.5" y="0.5" width="39" height="39" rx="11.5" transform="rotate(90 39.5 0.5)" stroke="black" stroke-opacity="0.1"/>
<g clip-path="url(#clip0_456_2032)">
<path d="M16.1278 13.6222C17.5115 13.6222 18.6333 14.7951 18.6333 16.2417C18.6333 17.6882 17.5115 18.8611 16.1278 18.8611C14.744 18.8611 13.6222 17.6882 13.6222 16.2417C13.6222 14.7951 14.744 13.6222 16.1278 13.6222ZM16.1278 17.5514C16.8197 17.5514 17.3806 16.9651 17.3806 16.2417C17.3806 15.5183 16.8197 14.9319 16.1278 14.9319C15.4359 14.9319 14.875 15.5183 14.875 16.2417C14.875 16.9651 15.4359 17.5514 16.1278 17.5514ZM28.9688 9.75C29.6769 9.75 30.25 10.3231 30.25 11.0312V28.9688C30.25 29.6769 29.6769 30.25 28.9688 30.25H11.0312C10.3231 30.25 9.75 29.6769 9.75 28.9688V11.0312C9.75 10.3231 10.3231 9.75 11.0312 9.75H28.9688ZM11.0312 28.3281C11.0312 28.506 11.1034 28.6662 11.2203 28.7824C11.1041 28.6662 11.0312 28.506 11.0312 28.3281ZM28.9688 28.3281V26.4049L24.2985 21.7347C24.0484 21.4845 23.6429 21.4845 23.3927 21.7347C23.3927 21.7347 20.3079 24.8196 19.6266 25.5016C18.9452 26.1823 18.4864 26.1724 17.8149 25.5016C17.1435 24.8296 16.611 24.2972 16.611 24.2972C16.3609 24.047 15.9554 24.047 15.7052 24.2972L11.2203 28.7824C11.3359 28.8974 11.4955 28.9688 11.6719 28.9688H28.3281C28.6821 28.9688 28.9688 28.6821 28.9688 28.3281ZM28.9688 24.5933V11.6719C28.9688 11.3179 28.6821 11.0312 28.3281 11.0312H11.6719C11.3179 11.0312 11.0312 11.3179 11.0312 11.6719V27.1596L15.2524 22.9391C15.7527 22.4374 16.5638 22.4374 17.0641 22.9391L18.7208 24.5952L22.94 20.3766C23.4404 19.8749 24.2515 19.8749 24.7518 20.3766L28.9689 24.5933H28.9688Z" fill="black"/>
</g>
<defs>
<clipPath id="clip0_456_2032">
<rect width="20.5" height="20.5" fill="white" transform="translate(9.75 9.75)"/>
</clipPath>
</defs>
</svg>
