<svg width="20" height="18" viewBox="0 0 20 18" fill="none" xmlns="http://www.w3.org/2000/svg">
<path d="M15.506 0.5C13.5816 0.5 12.012 2.01826 12.012 3.87939C12.012 4.22854 12.0665 4.56644 12.1693 4.88351L7.31899 7.01526C6.68279 6.17097 5.65281 5.62052 4.49399 5.62052C2.56955 5.6207 1 7.13896 1 9.00009C1 10.8612 2.56974 12.3795 4.49399 12.3795C5.65281 12.3795 6.68279 11.829 7.31899 10.9847L12.1702 13.1156C12.0675 13.4336 12.012 13.7705 12.012 14.1206C12.012 15.9819 13.5818 17.5 15.506 17.5C17.4303 17.5 19 15.9817 19 14.1206C19 12.2595 17.4303 10.7412 15.506 10.7412C14.2427 10.7412 13.1331 11.3945 12.5186 12.3701L7.73163 10.2669C7.89592 9.87554 7.98798 9.44768 7.98798 9.00009C7.98798 8.55251 7.89592 8.12483 7.73163 7.73328L12.5186 5.63084C13.1323 6.60639 14.2429 7.25878 15.506 7.25878C17.4304 7.25878 19 5.74053 19 3.87939C19 2.01826 17.4303 0.5 15.506 0.5ZM15.506 1.31922C16.973 1.31922 18.1532 2.46068 18.1532 3.87957C18.1532 5.29847 16.973 6.43993 15.506 6.43993C14.039 6.43993 12.8588 5.29847 12.8588 3.87957C12.8588 2.46068 14.039 1.31922 15.506 1.31922ZM4.4938 6.43993C5.96081 6.43993 7.14098 7.58138 7.14098 9.00028C7.14098 10.4192 5.96081 11.5606 4.4938 11.5606C3.02679 11.5606 1.84662 10.4192 1.84662 9.00028C1.84662 7.58138 3.02679 6.43993 4.4938 6.43993ZM15.506 11.5606C16.973 11.5606 18.1532 12.7021 18.1532 14.121C18.1532 15.5399 16.973 16.6813 15.506 16.6813C14.039 16.6813 12.8588 15.5399 12.8588 14.121C12.8588 12.7021 14.039 11.5606 15.506 11.5606Z" fill="black" stroke="black" stroke-width="0.5"/>
</svg>
