<?xml version="1.0" encoding="UTF-8"?>
<svg id="Layer_1" data-name="Layer 1" xmlns="http://www.w3.org/2000/svg" version="1.1" viewBox="0 0 27 15">
  <defs>
    <style>
      .cls-1 {
        fill: #000;
        fill-rule: evenodd;
        stroke: #000;
        stroke-width: .4px;
      }
    </style>
  </defs>
  <path class="cls-1" d="M13.5,1C6.7,1,1.1,7.2,1.1,7.2c-.1.2-.1.4,0,.6,0,0,5.6,6.2,12.4,6.2s12.4-6.2,12.4-6.2c.1-.2.1-.4,0-.6,0,0-5.6-6.2-12.4-6.2ZM13.5,1.9c5.6,0,10.3,4.4,11.5,5.6-1.2,1.2-5.9,5.6-11.5,5.6S3.2,8.7,2,7.5C3.2,6.3,7.9,1.9,13.5,1.9ZM13.5,3.5c-2.2,0-4,1.8-4,4s1.8,4,4,4,4-1.8,4-4-1.8-4-4-4ZM13.5,4.5c1.7,0,3,1.4,3,3s-1.4,3-3,3-3-1.4-3-3,1.4-3,3-3Z"/>
</svg>