<?xml version="1.0" encoding="UTF-8"?>
<svg xmlns="http://www.w3.org/2000/svg" version="1.1" viewBox="0 0 1078.3 1078.8">
  <defs>
    <style>
      .cls-1 {
        fill: none;
      }

      .cls-2, .cls-3 {
        fill: #fff;
      }

      .cls-3 {
        isolation: isolate;
        opacity: .4;
      }
    </style>
  </defs>
  <!-- Generator: Adobe Illustrator 28.6.0, SVG Export Plug-In . SVG Version: 1.2.0 Build 709)  -->
  <g>
    <g id="Layer_1">
      <g>
        <path class="cls-1" d="M651.1,266.3c-7.3-3.1-14.7-5.8-22.3-8.3-28.8-9.6-58.8-14.4-90-14.4s-61.2,4.8-90,14.4c-7,2.2-14,4.7-20.8,7.5-72.5,29.2-131.5,86.9-162.3,158.6-3.8,8.8-7.2,17.9-10.1,27.1-9.6,28.8-14.4,58.8-14.4,90s4.8,61.2,14.4,90c2.3,7.2,4.8,14.3,7.6,21.2,29.7,73.4,88.6,132.9,161.7,163.2,7.8,3.3,15.8,6.2,23.9,8.7,58.8,19.2,123.6,19.2,181.2,0,6.8-2.2,13.4-4.6,20-7.3,76.2-30.8,136.3-90.9,165.3-166.2,2.5-6.5,4.8-13,6.8-19.7,9.6-28.8,14.4-58.8,14.4-90s-4.8-61.2-14.4-90c-2.4-7.6-5.1-15.1-8.2-22.5-30-73.2-89.4-131.7-162.7-162.4Z"/>
        <path class="cls-3" d="M1069.2,428.4c-.8-3.8-1.6-7.5-2.5-11.2l-252.8,11.5c3,7.4,5.8,14.8,8.2,22.5,9.6,28.8,14.4,58.8,14.4,90s-4.8,61.2-14.4,90c-2,6.7-4.3,13.2-6.8,19.7l248.3,14c1.1-4.8,2.2-9.6,3.3-14.5,7.2-36,10.8-73.2,10.8-110.4,2.4-37.2-1.2-74.4-8.4-111.6Z"/>
        <path class="cls-3" d="M448.8,258c28.8-9.6,58.8-14.4,90-14.4s61.2,4.8,90,14.4c7.6,2.5,15,5.3,22.3,8.3l15.2-251.9c-5.3-1.3-10.6-2.5-15.9-3.6C596.4,0,540-2.4,483.6,2.4c-18,2.4-37.2,4.8-55.2,8.4-6.4,1.3-12.7,2.8-19,4.4l18.5,250.3c6.8-2.7,13.8-5.2,20.8-7.5Z"/>
        <path class="cls-3" d="M255.6,631.2c-9.6-28.8-14.4-58.8-14.4-90s4.8-61.2,14.4-90c2.9-9.2,6.3-18.3,10.1-27.1l-251.9-9c-1.1,4.4-2.1,8.8-3,13.3C3.6,465.6,0,502.8,0,540s3.6,74.4,10.8,110.4c1.1,5.2,2.3,10.3,3.5,15.5l248.9-13.5c-2.8-7-5.4-14-7.6-21.2Z"/>
        <path class="cls-3" d="M630,824.4c-57.6,19.2-122.4,19.2-181.2,0-8.1-2.6-16.1-5.5-23.9-8.7l-11.2,249c4.9,1.2,9.8,2.3,14.8,3.3,36,7.2,73.2,10.8,110.4,10.8s74.4-3.6,110.4-10.8c6.3-1.3,12.5-2.8,18.7-4.3l-17.9-246.6c-6.5,2.6-13.2,5.1-20,7.3Z"/>
        <path class="cls-2" d="M428,265.4l-18.5-250.3C214.1,64.1,60.7,218.9,13.8,415.1l251.9,9c30.8-71.7,89.8-129.4,162.3-158.6Z"/>
        <path class="cls-2" d="M813.8,428.7l252.8-11.5C1020.1,219,864.9,62.6,666.3,14.4l-15.2,251.9c73.4,30.7,132.7,89.2,162.7,162.4Z"/>
        <path class="cls-2" d="M649.9,817.1l17.9,246.6c196.2-48.7,348.5-202,395.7-398.8l-248.3-14c-29,75.3-89.1,135.5-165.3,166.2Z"/>
        <path class="cls-2" d="M263.2,652.4l-248.9,13.5c47.8,197.6,201.6,351.2,399.3,398.8l11.2-249c-73-30.4-132-89.8-161.7-163.2Z"/>
      </g>
    </g>
  </g>
</svg>