<?xml version="1.0" encoding="UTF-8"?>
<svg id="Layer_1" xmlns="http://www.w3.org/2000/svg" version="1.1" viewBox="0 0 1148.1 1148.1">
  <!-- Generator: Adobe Illustrator 29.1.0, SVG Export Plug-In . SVG Version: 2.1.0 Build 142)  -->
  <defs>
    <style>
      .st0 {
        fill: #fff;
        fill-rule: evenodd;
      }
    </style>
  </defs>
  <path class="st0" d="M574.1,0C891.1,0,1148.1,257,1148.1,574.1s-257,574.1-574.1,574.1S0,891.1,0,574.1,257,0,574.1,0h0ZM289.9,581.5c-21.2-23.4-19.4-59.6,4-80.8,23.4-21.2,59.6-19.4,80.8,4l143,158,309-319.2c22.1-22.7,58.3-23.2,81-1.1,22.7,22.1,23.2,58.3,1.1,81l-351.4,363h0c-.8.8-1.7,1.7-2.6,2.4-23.4,21.2-59.6,19.4-80.8-4l-184.1-203.4h0Z"/>
</svg>