<?xml version="1.0" encoding="UTF-8"?>
<svg id="Layer_1" data-name="Layer 1" xmlns="http://www.w3.org/2000/svg" version="1.1" viewBox="0 0 50 50">
  <defs>
    <style>
      .cls-1 {
        fill: #000;
        fill-rule: evenodd;
        stroke-width: 0px;
      }
    </style>
  </defs>
  <path class="cls-1" d="M39.8,35.6c0-.5-.4-.9-.9-.9h-19.1c-.5,0-.9.4-.9.9s.4.9.9.9h19.1c.5,0,.9-.4.9-.9ZM31.6,33c.5.5,1.1.8,1.8.8h3.8c.5,0,.9-.4.9-.9v-4c0-.7-.3-1.4-.7-1.9l-12.2-12.7c-1.3-1.4-3.5-1.4-4.8,0l-.9.9c-1.3,1.4-1.3,3.7,0,5l12.2,12.7ZM36.2,28.3c.2.2.2.4.2.6v3.1h-3c-.2,0-.4,0-.6-.3l-9.3-9.8,3.3-3.5,9.3,9.8ZM20.7,19c-.7-.7-.7-1.8,0-2.5.3-.3.6-.6.9-.9.7-.7,1.7-.7,2.4,0l1.6,1.7-3.3,3.5-1.6-1.7Z"/>
</svg>