<svg width="27" height="27" viewBox="0 0 27 27" fill="none" xmlns="http://www.w3.org/2000/svg">
<g clip-path="url(#clip0_304_1793)">
<path d="M0.70871 27.0001C0.892315 27.0001 1.07567 26.93 1.21179 26.7896L10.6054 17.3858L10.487 21.2664C10.4751 21.6522 10.783 21.9793 11.1737 21.9853H11.1974C11.5821 21.9853 11.896 21.6873 11.9076 21.3073L12.0793 15.644V15.5679C12.0793 15.5562 12.0735 15.5445 12.0735 15.527C12.0735 15.5153 12.0735 15.5096 12.0677 15.4978C12.0677 15.4861 12.0619 15.4687 12.0558 15.4569C12.0558 15.4512 12.05 15.4395 12.05 15.4335C12.0442 15.4161 12.0382 15.4043 12.0324 15.3866C12.0324 15.3809 12.0265 15.3749 12.0265 15.3692C12.0207 15.3517 12.0147 15.334 12.0028 15.3166C12.0028 15.3108 11.997 15.3048 11.997 15.3048C11.9912 15.2874 11.9793 15.2757 11.9674 15.258C11.9674 15.2522 11.9616 15.2462 11.9616 15.2462C11.9498 15.2345 11.944 15.2228 11.9321 15.2053C11.9263 15.1996 11.9202 15.1936 11.9202 15.1879C11.9144 15.1762 11.9025 15.1704 11.8965 15.1587C11.8907 15.153 11.8846 15.1413 11.8727 15.1353C11.8669 15.1295 11.8551 15.1178 11.8432 15.1118L11.8194 15.0884C11.8018 15.0767 11.7838 15.0592 11.7662 15.0475C11.6833 14.9949 11.5944 14.9597 11.4997 14.9423H11.482C11.4644 14.9423 11.4464 14.9365 11.4288 14.9365H11.3578L5.72286 15.1001C5.33217 15.1118 5.02431 15.4333 5.03618 15.819C5.04805 16.2048 5.37358 16.5145 5.76428 16.4971L9.62958 16.3861L0.20588 25.8016C-0.0724311 26.0764 -0.0663699 26.5205 0.211689 26.7951C0.353623 26.9295 0.531419 26.9996 0.708962 26.9996H0.70871V27.0001Z" fill="black" stroke="black"/>
<path d="M14.9147 11.4011V11.4302C14.9147 11.442 14.9205 11.4537 14.9205 11.4711C14.9205 11.4828 14.9205 11.4886 14.9263 11.5003C14.9263 11.512 14.9321 11.5295 14.9382 11.5412C14.9382 11.5469 14.944 11.5587 14.944 11.5646C14.9498 11.5821 14.9558 11.5938 14.9616 11.6115C14.9616 11.6173 14.9675 11.6232 14.9675 11.629C14.9733 11.6464 14.9793 11.6641 14.9912 11.6816C14.9912 11.6873 14.997 11.6933 14.997 11.6933C15.0028 11.7108 15.0147 11.7225 15.0266 11.7402C15.0266 11.7459 15.0324 11.7519 15.0324 11.7519C15.0442 11.7636 15.05 11.7811 15.0619 11.7928C15.0677 11.7985 15.0738 11.8045 15.0738 11.8103C15.0796 11.822 15.0915 11.8277 15.0975 11.8394C15.1033 11.8452 15.1094 11.8569 15.1213 11.8629C15.1271 11.8686 15.1331 11.8746 15.145 11.8803L15.1745 11.9095C15.1864 11.9212 15.1983 11.927 15.2102 11.933C15.216 11.9387 15.222 11.9447 15.2339 11.9504C15.2458 11.9621 15.2634 11.9679 15.2814 11.9796C15.2872 11.9796 15.2932 11.9853 15.2932 11.9853C15.3109 11.997 15.3289 12.0028 15.3465 12.0088C15.3523 12.0088 15.3523 12.0145 15.3584 12.0145L15.4117 12.0319C15.4175 12.0319 15.4175 12.0377 15.4236 12.0377C15.4412 12.0434 15.4592 12.0494 15.4769 12.0494C15.4827 12.0494 15.4887 12.0494 15.4945 12.0551C15.5122 12.0609 15.5301 12.0609 15.5478 12.0609H15.5655C15.5892 12.0609 15.613 12.0666 15.6365 12.0666H15.6602L21.2951 11.903C21.6858 11.8913 21.9937 11.5699 21.9818 11.1841C21.9699 10.7983 21.6444 10.4944 21.2537 10.5061L17.3884 10.6171L26.7942 1.19654C27.0725 0.921738 27.0664 0.477619 26.7884 0.203068C26.5103 -0.071483 26.0603 -0.0657476 25.7822 0.208803L16.3886 9.61261L16.507 5.73199C16.5189 5.34622 16.211 5.01905 15.8203 5.01307C15.4296 5.00135 15.0983 5.30533 15.0922 5.69109L14.9205 11.3544V11.3661C14.9147 11.3779 14.9147 11.3896 14.9147 11.4013V11.4011Z" fill="black" stroke="black"/>
</g>
<defs>
<clipPath id="clip0_304_1793">
<rect width="27" height="27" fill="white"/>
</clipPath>
</defs>
</svg>
