<?xml version="1.0" encoding="UTF-8"?>
<svg id="Layer_1" xmlns="http://www.w3.org/2000/svg" version="1.1" viewBox="0 0 900 900">
  <!-- Generator: Adobe Illustrator 29.0.1, SVG Export Plug-In . SVG Version: 2.1.0 Build 192)  -->
  <defs>
    <style>
      .st0 {
        fill: #fff;
      }
    </style>
  </defs>
  <path class="st0" d="M862.5,900H37.5c-20.7,0-37.5-16.8-37.5-37.5v-300c0-20.7,16.8-37.5,37.5-37.5s37.5,16.8,37.5,37.5v262.5h750v-262.5c0-20.7,16.8-37.5,37.5-37.5s37.5,16.8,37.5,37.5v300c0,20.7-16.8,37.5-37.5,37.5Z"/>
  <path class="st0" d="M450,600c-8.2,0-16.6-2.7-23.4-8.2l-187.5-150c-16.1-13-18.8-36.5-5.9-52.7,13-16.1,36.6-18.8,52.7-5.9l164,131.2,164.1-131.2c16.4-12.9,39.8-10.2,52.7,5.9,12.9,16.2,10.4,39.8-5.9,52.7l-187.5,150c-6.9,5.5-15.2,8.2-23.5,8.2h0Z"/>
  <path class="st0" d="M450,600c-20.7,0-37.5-16.8-37.5-37.5v-225C412.5,151.4,563.9,0,750,0s37.5,16.8,37.5,37.5-16.8,37.5-37.5,37.5c-144.8,0-262.5,117.8-262.5,262.5v225c0,20.7-16.8,37.5-37.5,37.5Z"/>
</svg>