<svg width="22" height="19" viewBox="0 0 22 19" fill="none" xmlns="http://www.w3.org/2000/svg">
<path d="M21.7378 7.27024L18.7854 5.18998C18.7384 5.14436 18.6845 5.10622 18.6252 5.0771L12.476 0.744422C11.5924 0.122302 10.4063 0.122302 9.5264 0.744422L0.264569 7.27024C-0.0185438 7.46842 -0.0841368 7.85499 0.114975 8.13281C0.314347 8.41423 0.703238 8.47943 0.982721 8.28151L3.04903 6.82543L3.0384 15.1802C3.0384 16.1273 3.40914 17.0177 4.08115 17.6857C4.75315 18.3537 5.64889 18.7223 6.59805 18.7223L6.60064 18.7186H7.23868C8.0188 18.7186 8.65087 18.088 8.65087 17.3149V13.7827C8.65087 13.1582 9.16136 12.6508 9.78955 12.6508H12.2287C12.8569 12.6508 13.3673 13.1582 13.3673 13.7827V17.3077C13.3673 17.6821 13.5133 18.0349 13.7806 18.3006C14.0479 18.5663 14.4028 18.7114 14.7795 18.7114H15.4077C17.3654 18.7114 18.9612 17.1242 18.9612 15.1792L18.9718 6.84141L21.0158 8.28151C21.1239 8.35882 21.2491 8.39619 21.3731 8.39619L21.3806 8.39258C21.5727 8.39258 21.7658 8.30316 21.8874 8.13281C22.0832 7.85499 22.0176 7.46842 21.7378 7.27024Z" fill="black"/>
</svg>
