<?xml version="1.0" encoding="UTF-8"?>
<svg id="Layer_1" data-name="Layer 1" xmlns="http://www.w3.org/2000/svg" version="1.1" viewBox="0 0 675 712.5">
  <defs>
    <style>
      .cls-1 {
        fill: #000;
        stroke: #fff;
        stroke-miterlimit: 10;
        stroke-width: 17px;
      }
    </style>
  </defs>
  <path class="cls-1" d="M375,397V37.5C375,16.8,358.2,0,337.5,0s-37.5,16.8-37.5,37.5v359.5l-123.5-123.5c-14.6-14.6-38.4-14.6-53,0s-14.6,38.4,0,53l214,214,214-214c14.6-14.6,14.6-38.4,0-53s-38.4-14.6-53,0l-123.5,123.5Z"/>
  <path class="cls-1" d="M37.5,487.5c20.7,0,37.5,16.8,37.5,37.5v60c0,29,23.5,52.5,52.5,52.5h420c29,0,52.5-23.5,52.5-52.5v-60c0-20.7,16.8-37.5,37.5-37.5s37.5,16.8,37.5,37.5v60c0,70.4-57.1,127.5-127.5,127.5H127.5c-70.4,0-127.5-57.1-127.5-127.5v-60c0-20.7,16.8-37.5,37.5-37.5Z"/>
</svg>