<?xml version="1.0" encoding="UTF-8"?>
<svg xmlns="http://www.w3.org/2000/svg" version="1.1" viewBox="0 0 40 40">
  <defs>
    <style>
      .cls-1 {
        fill: #fff;
      }

      .cls-2 {
        fill: none;
        stroke-opacity: .1;
      }

      .cls-2, .cls-3 {
        stroke: #000;
      }

      .cls-3 {
        stroke-width: .5px;
      }
    </style>
  </defs>
  <!-- Generator: Adobe Illustrator 28.6.0, SVG Export Plug-In . SVG Version: 1.2.0 Build 709)  -->
  <g>
    <g id="Layer_1">
      <rect class="cls-3" width="40" height="40" rx="12" ry="12"/>
      <rect class="cls-2" x=".5" y=".5" width="39" height="39" rx="11.5" ry="11.5"/>
      <path class="cls-1" d="M20,13.4c-.4,0-.7.3-.7.7v5.2h-5.2c-.4,0-.7.3-.7.7s.3.7.7.7h5.2v5.2c0,.4.3.7.7.7s.7-.3.7-.7v-5.2h5.2c.4,0,.7-.3.7-.7s-.3-.7-.7-.7h-5.2v-5.2c0-.4-.3-.7-.7-.7Z"/>
    </g>
  </g>
</svg>