<?xml version="1.0" encoding="UTF-8"?>
<svg id="Layer_1" data-name="Layer 1" xmlns="http://www.w3.org/2000/svg" version="1.1" viewBox="0 0 9 12">
  <defs>
    <style>
      .cls-1 {
        fill: #f1bb45;
        stroke-width: 0px;
      }
    </style>
  </defs>
  <path class="cls-1" d="M1.1,2.2L3.9.6c.4-.3,1-.1,1.3.3.4.6.4,1.4.2,2.1l.4.8c1.1,0,2.1.4,2.8,1.3.2.2.3.5.2.8,0,.3-.2.5-.5.7l-2,1.2,1.7,3c.1.2,0,.4-.1.5,0,0-.2,0-.3,0s-.2,0-.2-.2l-1.7-3-2,1.2c-.2.1-.5.2-.7.1,0,0,0,0,0,0-.3,0-.5-.3-.5-.6-.3-1-.2-2.2.4-3.2l-.4-.8c-.7-.2-1.3-.6-1.6-1.2-.3-.5,0-1,.4-1.3h0s0,0,0,0Z"/>
</svg>