<?xml version="1.0" encoding="UTF-8"?>
<svg id="Layer_1" data-name="Layer 1" xmlns="http://www.w3.org/2000/svg" xmlns:xlink="http://www.w3.org/1999/xlink" version="1.1" viewBox="0 0 40 40">
  <defs>
    <style>
      .cls-1 {
        clip-path: url(#clippath);
      }

      .cls-2 {
        fill: none;
      }

      .cls-2, .cls-3, .cls-4 {
        stroke-width: 0px;
      }

      .cls-3 {
        fill: #000;
      }

      .cls-4 {
        fill: #fff;
      }
    </style>
    <clipPath id="clippath">
      <rect class="cls-2" x="9.8" y="9.8" width="20.5" height="20.5"/>
    </clipPath>
  </defs>
  <rect class="cls-4" width="40" height="40" rx="12" ry="12"/>
  <g class="cls-1">
    <path class="cls-3" d="M16.1,13.6c1.4,0,2.5,1.2,2.5,2.6s-1.1,2.6-2.5,2.6-2.5-1.2-2.5-2.6,1.1-2.6,2.5-2.6ZM16.1,17.6c.7,0,1.3-.6,1.3-1.3s-.6-1.3-1.3-1.3-1.3.6-1.3,1.3.6,1.3,1.3,1.3ZM29,9.8c.7,0,1.3.6,1.3,1.3v17.9c0,.7-.6,1.3-1.3,1.3H11c-.7,0-1.3-.6-1.3-1.3V11c0-.7.6-1.3,1.3-1.3h17.9ZM11,28.3c0,.2,0,.3.2.5-.1-.1-.2-.3-.2-.5ZM29,28.3v-1.9l-4.7-4.7c-.3-.3-.7-.3-.9,0,0,0-3.1,3.1-3.8,3.8-.7.7-1.1.7-1.8,0-.7-.7-1.2-1.2-1.2-1.2-.3-.3-.7-.3-.9,0l-4.5,4.5c.1.1.3.2.5.2h16.7c.4,0,.6-.3.6-.6ZM29,24.6v-12.9c0-.4-.3-.6-.6-.6H11.7c-.4,0-.6.3-.6.6v15.5l4.2-4.2c.5-.5,1.3-.5,1.8,0l1.7,1.7,4.2-4.2c.5-.5,1.3-.5,1.8,0l4.2,4.2h0Z"/>
  </g>
</svg>