<?xml version="1.0" encoding="UTF-8"?>
<svg id="Layer_1" data-name="Layer 1" xmlns="http://www.w3.org/2000/svg" viewBox="0 0 1140.05 1140.04">
  <defs>
    <style>
      .cls-1 {
        fill-rule: evenodd;
      }
    </style>
  </defs>
  <path class="cls-1" d="M97.69,436.35v520.45c0,47.06,38.44,85.41,85.41,85.41h371.95c46.97,0,85.41-38.34,85.41-85.41V436.35c0-47.06-38.44-85.59-85.41-85.59l-371.95.19c-46.97,0-85.41,38.44-85.41,85.41h0ZM214.27,902.53c-26.95,0-48.89-21.89-48.89-48.84s21.94-48.84,48.89-48.84h154.78c26.95,0,48.89,21.89,48.89,48.84s-21.94,48.84-48.89,48.84h-154.78ZM214.27,745.45c-26.95,0-48.89-21.84-48.89-48.84s21.94-48.84,48.89-48.84h309.66c26.95,0,48.8,21.84,48.8,48.84s-21.84,48.84-48.8,48.84H214.27ZM214.27,588.37c-26.95,0-48.89-21.84-48.89-48.84s21.94-48.84,48.89-48.84h309.66c26.95,0,48.8,21.84,48.8,48.84s-21.84,48.84-48.8,48.84H214.27ZM401.82,253.45v-70.36C401.82,82.17,484.13.19,584.96.19l371.95-.19c100.92,0,183.14,82.27,183.14,183.14v520.45c0,100.92-82.22,183.14-183.14,183.14h-218.68v70.17c0,100.88-82.31,183.14-183.14,183.14H183.14c-100.83,0-183.14-82.27-183.14-183.14V436.45c0-100.92,82.22-182.9,183.14-182.9h218.68v-.11ZM738.24,788.9v-352.55c0-100.88-82.31-183.14-183.14-183.14l-55.55.19v-70.36c0-46.97,38.53-85.41,85.41-85.41l371.95-.19c47.11,0,85.41,38.58,85.41,85.59v520.45c0,46.97-38.44,85.41-85.41,85.41h-218.67Z"/>
</svg>