<svg width="17" height="17" viewBox="0 0 17 17" fill="none" xmlns="http://www.w3.org/2000/svg">
<path d="M7.8288 6.44423V12.8021C7.8288 12.9525 7.90914 13.0915 8.03933 13.1668C8.16952 13.2419 8.33019 13.2419 8.46038 13.1668C8.59057 13.0915 8.67091 12.9525 8.67091 12.8021V6.44423C9.40842 6.33778 10.0782 5.95597 10.5456 5.37559C11.013 4.79522 11.243 4.05938 11.1896 3.31597C11.1363 2.57273 10.8035 1.87732 10.2579 1.36953C9.71259 0.861741 8.99495 0.579468 8.24986 0.579468C7.50476 0.579468 6.78729 0.861742 6.24177 1.36936C5.69626 1.87715 5.36346 2.57256 5.31007 3.3158C5.25668 4.05905 5.48691 4.79488 5.95411 5.37543C6.42148 5.95581 7.09129 6.33762 7.8288 6.44406V6.44423ZM8.24986 1.4337C8.80817 1.4337 9.34375 1.65551 9.73853 2.05029C10.1335 2.44507 10.3551 2.98048 10.3551 3.53896C10.3551 4.09745 10.1333 4.63286 9.73853 5.02764C9.34375 5.42258 8.80834 5.64423 8.24986 5.64423C7.69137 5.64423 7.15596 5.42242 6.76118 5.02764C6.36624 4.63286 6.14459 4.09745 6.14459 3.53896C6.14459 2.98048 6.3664 2.44507 6.76118 2.05029C7.15596 1.65534 7.69137 1.4337 8.24986 1.4337Z" fill="black" stroke="black" stroke-width="0.2"/>
<path d="M10.8353 9.85458C10.6849 9.83352 10.5346 9.89432 10.4412 10.0141C10.3477 10.1338 10.3253 10.2943 10.3822 10.4351C10.4391 10.5759 10.567 10.6756 10.7174 10.6967C13.4374 11.0756 15.4079 12.103 15.4079 13.1388C15.4079 14.3683 12.4689 15.7493 8.25 15.7493C4.03105 15.7493 1.09211 14.3681 1.09211 13.1386C1.09211 12.1028 3.06263 11.0755 5.78263 10.6965C5.89278 10.6778 5.99181 10.6177 6.05901 10.5284C6.12638 10.4392 6.15703 10.3275 6.14474 10.2165C6.12806 10.1054 6.06844 10.0051 5.97867 9.93744C5.88891 9.86973 5.77623 9.83992 5.66474 9.85441C2.35526 10.3262 0.25 11.6146 0.25 13.1388C0.25 15.1093 3.68579 16.5914 8.25 16.5914C12.8142 16.5914 16.25 15.1093 16.25 13.1388C16.25 11.6146 14.1447 10.3262 10.8353 9.85458Z" fill="black" stroke="black" stroke-width="0.2"/>
</svg>
