<svg width="27" height="15" viewBox="0 0 27 15" fill="none" xmlns="http://www.w3.org/2000/svg">
<path fill-rule="evenodd" clip-rule="evenodd" d="M13.5 1.03442C6.66561 1.03442 1.11052 7.21204 1.11052 7.21204C0.963161 7.37572 0.963161 7.62422 1.11052 7.78789C1.11052 7.78789 6.66561 13.9655 13.5 13.9655C20.3344 13.9655 25.8895 7.78789 25.8895 7.78789C26.0368 7.62422 26.0368 7.37572 25.8895 7.21204C25.8895 7.21204 20.3344 1.03442 13.5 1.03442ZM13.5 1.89648C19.1206 1.89648 23.8196 6.31803 24.9757 7.49985C23.8196 8.68167 19.1206 13.1032 13.5 13.1032C7.87939 13.1032 3.18037 8.68167 2.0243 7.49985C3.18037 6.31803 7.87939 1.89648 13.5 1.89648ZM13.5 2.32751C10.6458 2.32751 8.32766 4.64564 8.32766 7.49985C8.32766 10.3541 10.6458 12.6722 13.5 12.6722C16.3542 12.6722 18.6723 10.3541 18.6723 7.49985C18.6723 4.64564 16.3542 2.32751 13.5 2.32751ZM13.5 3.18957C15.8793 3.18957 17.8103 5.12057 17.8103 7.49985C17.8103 9.87913 15.8793 11.8101 13.5 11.8101C11.1207 11.8101 9.18972 9.87913 9.18972 7.49985C9.18972 5.12057 11.1207 3.18957 13.5 3.18957ZM13.5 4.91368C12.0724 4.91368 10.9138 6.07229 10.9138 7.49985C10.9138 8.92742 12.0724 10.086 13.5 10.086C14.9276 10.086 16.0862 8.92742 16.0862 7.49985C16.0862 6.07229 14.9276 4.91368 13.5 4.91368ZM13.5 5.77574C14.4517 5.77574 15.2241 6.54814 15.2241 7.49985C15.2241 8.45156 14.4517 9.22397 13.5 9.22397C12.5483 9.22397 11.7759 8.45156 11.7759 7.49985C11.7759 6.54814 12.5483 5.77574 13.5 5.77574Z" fill="black" stroke="black" stroke-width="0.4"/>
</svg>
