<?xml version="1.0" encoding="UTF-8"?>
<svg id="Layer_1" xmlns="http://www.w3.org/2000/svg" version="1.1" viewBox="0 0 1200 1200">
  <!-- Generator: Adobe Illustrator 29.1.0, SVG Export Plug-In . SVG Version: 2.1.0 Build 142)  -->
  <defs>
    <style>
      .st0 {
        fill-rule: evenodd;
      }
    </style>
  </defs>
  <path class="st0" d="M1030,906c-7.7,0-15-2.4-21.2-6.9L188.7,299.1c-16-11.7-19.5-34.3-7.8-50.3,6.8-9.2,17.6-14.7,29.1-14.7s15,2.4,21.2,6.9l820,600c16,11.7,19.5,34.3,7.8,50.3-6.8,9.2-17.6,14.7-29.1,14.7ZM600,903.3c-93.7,0-184-23.3-268.6-69.2-84.2-45.7-164.6-114.9-239.2-205.8-10.2-12.5-10.9-30.4-1.6-43.6,52.1-74.1,107.4-136.1,164.3-184.5l4.1-3.5,3.7,3.4,55.8,40.9-15.6,12.9c-46.9,39.6-93,90-137.2,149.7,65.2,75.3,134.5,132.5,206,170.2,72.2,38.1,149.1,57.4,228.4,57.4s130.9-13.4,192.1-40l3.2-1.4,12.7,9.3,53.2,38.9-8.7,4.4c-79.8,40.3-164.7,60.7-252.4,60.7ZM600,792.4c-116.1,0-210.5-94.5-210.5-210.5s4.1-47.8,12.1-70.4l2.7-7.6,61.2,44.8-.8,3.8c-2.1,9.6-3.1,19.5-3.1,29.4,0,76.4,62.2,138.5,138.6,138.5s48.1-6.4,69-18.4l3.4-1.9,61.2,44.7-6.4,4.9c-36.8,27.9-80.8,42.7-127.1,42.7ZM961.8,728.4l-31.1-22.8,5.9-4.9c33.2-27.7,66.1-60.3,97.8-97-65.5-88.7-135-156.2-206.8-200.5-72.1-44.6-148.7-67.2-227.6-67.2s-93.2,8-137.6,23.7l-3,1.1-68-49.8,9.5-4.2c63.6-28.4,130.7-42.8,199.2-42.8h7.4,0c91.7,1.4,180.1,28.6,262.8,80.9,84.3,53.3,164.8,134,239.3,239.8,9.3,13.2,8.6,31.1-1.6,43.6-36.6,44.5-74.8,84.2-113.7,117.9l-3.6,3.1-28.7-21ZM737.5,564.2l-.4-2.5c-4.7-32.6-21.1-62.6-46.1-84.3-25.2-22-57.5-34.1-91-34.1s-15,.6-22.4,1.8l-2.5.4-70.6-51.6,9.4-4.2c27.1-12.2,56.1-18.3,86-18.3h.2c63.9,2.3,120.6,26.9,159.7,69.4,35.1,38.1,53.1,88.3,50.6,141.5,0,2-.2,4.1-.2,6.1-.2,5.7-.4,11.6-1.1,17.4l-1.2,10.3-70.6-51.7Z"/>
  <path d="M210,240c6.1,0,12.3,1.9,17.7,5.8h0l820,600c13.4,9.8,16.3,28.6,6.5,41.9-5.9,8-15,12.3-24.2,12.3s-12.3-1.9-17.7-5.8L192.3,294.2c-13.4-9.8-16.3-28.6-6.5-41.9,5.9-8,15-12.3,24.2-12.3M600,270h0c187.6,0,356.1,107.2,504.5,318.2,7.8,11,7.2,25.9-1.3,36.3-36.5,44.5-74.2,83.6-113,117.2l-24.8-18.2-24.9-18.2c34.7-29,68.6-62.7,101.6-101.3-134.5-183.7-281.6-274-442.1-274s-94.3,8-139.6,24l-57.1-41.8c63-28.1,128.6-42.2,196.8-42.2M600,377.3c121.7,4.4,209.8,91.6,204.5,204.5-.4,7.8-.4,15.5-1.3,23.1l-60.2-44.1c-10.1-69.9-70.3-123.6-143-123.6s-15.7.6-23.3,1.9l-60.2-44.1c25.5-11.4,53.8-17.8,83.6-17.8M258.8,404.8h0s49.9,36.5,49.9,36.5l-9.7,8c-48.5,40.9-95.5,92.4-141,154.7,134,156.2,280.9,233.2,442.1,233.2s132.1-13.4,194.5-40.5l9.9,7.2,45.3,33.2c-79.1,40-162.4,60.1-249.7,60.1-186.4,0-354.6-91.7-503.2-272.8-8.6-10.4-9.1-25.3-1.3-36.3,52-73.9,106.4-135.1,163.3-183.4M407.2,513.4s0,0,0,0h0M407.2,513.4l51.5,37.7c-2.1,9.9-3.3,20.2-3.3,30.7,0,79.8,64.7,144.5,144.6,144.5s50.8-7,72-19.2l51.5,37.7c-34.3,26-77.1,41.5-123.5,41.5-113,0-204.6-91.6-204.6-204.5s4.1-47,11.7-68.4M210,228c-13.4,0-26,6.4-33.9,17.2-13.7,18.7-9.6,45,9.1,58.7l820,600c7.2,5.3,15.8,8.1,24.8,8.1,13.4,0,26-6.4,33.9-17.2,13.7-18.7,9.6-45-9.1-58.7L234.8,236.1c-7.2-5.3-15.8-8.1-24.8-8.1h0ZM600,258c-69.4,0-137.2,14.6-201.7,43.3l-18.9,8.4,16.7,12.2,57.1,41.8,5.1,3.7,6-2.1c43.8-15.5,89.4-23.3,135.6-23.3s77.4,5.5,114.5,16.5c37.3,11,74.3,27.8,110,49.8,35.9,22.2,71.6,50.5,106,84,32.6,31.8,65,69.1,96.3,111.1-30.5,34.9-62.1,66.1-94,92.7l-11.8,9.8,12.4,9.1,24.9,18.2,24.8,18.2,7.7,5.7,7.2-6.3c39.2-33.9,77.7-73.9,114.5-118.7,11.9-14.5,12.7-35.4,1.9-50.8-37.4-53.1-76.5-100.3-116.4-140.3-40.1-40.2-82-74.2-124.6-101.2-42.8-27.1-87.5-47.7-132.8-61.3-40.8-12.2-83.1-19.1-126-20.3v-.2s-14.6,0-14.6,0h0ZM600.2,365.3h-.2c-30.8,0-60.6,6.3-88.5,18.9l-18.8,8.4,16.7,12.2,60.2,44.1,4,3,5-.8c7-1.1,14.2-1.7,21.4-1.7,32,0,63,11.6,87.1,32.6,23.9,20.8,39.5,49.5,44.1,80.7l.7,5,4.1,3,60.2,44.1,16.7,12.2,2.3-20.6c.7-6,.9-12.1,1.1-17.9,0-2,.1-4,.2-6,1.3-27.8-2.7-54.7-11.9-79.8-8.9-24.4-22.5-46.6-40.3-66-40.2-43.6-98.4-68.9-163.9-71.3h-.2ZM259.2,388.8l-8.1,6.9c-57.3,48.7-113,111.1-165.4,185.6-10.8,15.4-10,36.3,1.9,50.8,37.4,45.6,76.7,86.2,116.6,120.5,40.1,34.5,81.9,63.7,124.4,86.7,42.7,23.2,87.1,40.8,132.1,52.4,45.1,11.6,92,17.5,139.4,17.5s88.3-5.2,130.7-15.4c42.3-10.2,84.1-25.7,124.4-46l17.5-8.8-15.8-11.6-45.3-33.2-9.9-7.2-5.5-4.1-6.3,2.7c-30.3,13.1-61.6,23.1-93.1,29.6-31.4,6.5-63.9,9.8-96.6,9.8s-77.9-4.7-115.3-14.1c-37.4-9.4-74.6-23.7-110.3-42.5-35.9-18.9-71.5-43-105.8-71.5-32.3-26.8-64.3-58.3-95.2-93.7,43-57.7,87.8-106.4,133.4-144.9l9.6-8,11.9-9.8-12.4-9.1-49.3-36.1-7.3-6.8h0ZM401.2,494.2l-5.4,15.2c-8.2,23.2-12.4,47.6-12.4,72.4s5.7,57.6,17,84.3c10.9,25.8,26.5,48.9,46.4,68.8s43,35.5,68.8,46.4c26.7,11.3,55.1,17,84.3,17s47.6-3.9,70.2-11.6c21.8-7.5,42.2-18.3,60.6-32.3l12.8-9.7-13-9.5-51.5-37.7-6.3-4.6-6.8,3.9c-20,11.5-42.8,17.6-66,17.6-35.4,0-68.7-13.8-93.7-38.8-25-25-38.8-58.3-38.8-93.7s1-19,3-28.1l1.6-7.6-6.3-4.6-51.5-37.7-13-9.5h0Z"/>
</svg>