<?xml version="1.0" encoding="UTF-8"?>
<svg id="Layer_1" data-name="Layer 1" xmlns="http://www.w3.org/2000/svg" version="1.1" viewBox="0 0 975 975">
  <defs>
    <style>
      .cls-1 {
        fill: #000;
        stroke-width: 0px;
      }
    </style>
  </defs>
  <path class="cls-1" d="M337.5,0H112.5C50.5,0,0,50.5,0,112.5v225c0,62,50.5,112.5,112.5,112.5h225c62,0,112.5-50.5,112.5-112.5V112.5c0-62-50.5-112.5-112.5-112.5ZM375,337.5c0,20.7-16.8,37.5-37.5,37.5H112.5c-20.7,0-37.5-16.8-37.5-37.5V112.5c0-20.7,16.8-37.5,37.5-37.5h225c20.7,0,37.5,16.8,37.5,37.5v225Z"/>
  <path class="cls-1" d="M862.5,525h-225c-62,0-112.5,50.5-112.5,112.5v225c0,62,50.5,112.5,112.5,112.5h225c62,0,112.5-50.5,112.5-112.5v-225c0-62-50.5-112.5-112.5-112.5ZM900,862.5c0,20.7-16.8,37.5-37.5,37.5h-225c-20.7,0-37.5-16.8-37.5-37.5v-225c0-20.7,16.8-37.5,37.5-37.5h225c20.7,0,37.5,16.8,37.5,37.5v225Z"/>
  <path class="cls-1" d="M672.7,350.7c7.3,7.3,19.2,7.3,26.5,0l26.5-26.5c7.3-7.3,7.3-19.2,0-26.5l-72.7-72.7h134.5c20.7,0,37.5,16.8,37.5,37.5v168.8c0,10.4,8.4,18.8,18.8,18.8h37.5c10.4,0,18.8-8.4,18.8-18.8v-168.8c0-62.1-50.4-112.5-112.5-112.5h-134.5l72.7-72.7c7.3-7.3,7.3-19.2,0-26.5l-26.5-26.5c-7.3-7.3-19.2-7.3-26.5,0l-136.7,136.7c-14.6,14.6-14.6,38.4,0,53l136.7,136.7Z"/>
  <path class="cls-1" d="M302.3,624.3c-7.3-7.3-19.2-7.3-26.5,0l-26.5,26.5c-7.3,7.3-7.3,19.2,0,26.5l72.7,72.7h-134.5c-20.7,0-37.5-16.8-37.5-37.5v-168.8c0-10.4-8.4-18.8-18.8-18.8h-37.5c-10.4,0-18.8,8.4-18.8,18.8v168.8c0,62.1,50.4,112.5,112.5,112.5h134.5l-72.7,72.7c-7.3,7.3-7.3,19.2,0,26.5l26.5,26.5c7.3,7.3,19.2,7.3,26.5,0l136.7-136.7c14.6-14.6,14.6-38.4,0-53l-136.7-136.7Z"/>
</svg>