<svg width="40" height="40" viewBox="0 0 40 40" fill="none" xmlns="http://www.w3.org/2000/svg">
<rect x="40" width="40" height="40" rx="12" transform="rotate(90 40 0)" fill="white"/>
<rect x="39.5" y="0.5" width="39" height="39" rx="11.5" transform="rotate(90 39.5 0.5)" stroke="black" stroke-opacity="0.1"/>
<path d="M19.4736 17.3236V25.271C19.4736 25.459 19.574 25.6327 19.7367 25.7268C19.8995 25.8207 20.1003 25.8207 20.263 25.7268C20.4258 25.6327 20.5262 25.459 20.5262 25.271V17.3236C21.4481 17.1906 22.2854 16.7133 22.8696 15.9878C23.4538 15.2624 23.7414 14.3426 23.6746 13.4133C23.6079 12.4843 23.1919 11.615 22.51 10.9803C21.8283 10.3455 20.9313 9.99268 19.9999 9.99268C19.0685 9.99268 18.1717 10.3455 17.4898 10.98C16.8079 11.6148 16.3919 12.484 16.3251 13.4131C16.2584 14.3421 16.5462 15.2619 17.1302 15.9876C17.7144 16.7131 18.5517 17.1904 19.4736 17.3234V17.3236ZM19.9999 11.0605C20.6978 11.0605 21.3673 11.3377 21.8607 11.8312C22.3544 12.3247 22.6315 12.9939 22.6315 13.692C22.6315 14.3901 22.3542 15.0594 21.8607 15.5529C21.3673 16.0466 20.698 16.3236 19.9999 16.3236C19.3018 16.3236 18.6325 16.0464 18.139 15.5529C17.6454 15.0594 17.3683 14.3901 17.3683 13.692C17.3683 12.9939 17.6456 12.3247 18.139 11.8312C18.6325 11.3375 19.3018 11.0605 19.9999 11.0605Z" fill="black" stroke="black" stroke-width="0.5"/>
<path d="M23.2316 21.5867C23.0436 21.5604 22.8558 21.6364 22.7389 21.7861C22.6221 21.9357 22.5941 22.1364 22.6653 22.3124C22.7364 22.4884 22.8962 22.613 23.0842 22.6393C26.4842 23.113 28.9474 24.3972 28.9474 25.6919C28.9474 27.2288 25.2737 28.9551 20 28.9551C14.7263 28.9551 11.0526 27.2286 11.0526 25.6917C11.0526 24.397 13.5158 23.1128 16.9158 22.6391C17.0535 22.6157 17.1773 22.5406 17.2613 22.429C17.3455 22.3174 17.3838 22.1778 17.3684 22.0391C17.3476 21.9002 17.2731 21.7749 17.1608 21.6903C17.0486 21.6056 16.9078 21.5684 16.7684 21.5865C12.6316 22.1762 10 23.7867 10 25.6919C10 28.1551 14.2947 30.0077 20 30.0077C25.7053 30.0077 30 28.1551 30 25.6919C30 23.7867 27.3684 22.1762 23.2316 21.5867Z" fill="black" stroke="black" stroke-width="0.5"/>
</svg>
