<svg width="18" height="18" viewBox="0 0 18 18" fill="none" xmlns="http://www.w3.org/2000/svg">
<path d="M14.3491 10.2667C14.15 10.2667 13.9398 10.1893 13.7849 10.0455C13.453 9.73571 13.4309 9.20467 13.7517 8.87277L15.4223 7.09158C16.0307 6.4831 16.3626 5.68654 16.3626 4.84573C16.3626 4.00492 16.0307 3.1973 15.4223 2.59988C14.8138 2.00246 14.0172 1.6595 13.1764 1.6595C12.3356 1.6595 11.528 1.9914 10.9306 2.58881L9.2268 4.35894C8.90597 4.69084 8.38599 4.70191 8.05409 4.38107C7.72219 4.06023 7.71113 3.54026 8.03197 3.20836L9.75784 1.4161C10.654 0.497849 11.8709 0 13.1653 0C14.4597 0 15.6767 0.508912 16.595 1.4161C17.5132 2.33436 18.0111 3.55132 18.0111 4.84573C18.0111 6.14014 17.5132 7.34604 16.595 8.26429L14.9576 10.0123C14.7916 10.1893 14.5704 10.2778 14.3491 10.2778V10.2667Z" fill="black"/>
<path d="M4.84569 18.0111C3.55128 18.0111 2.33432 17.5021 1.41606 16.595C-0.464697 14.7031 -0.464697 11.6386 1.41606 9.74677L3.0645 8.1094C3.38533 7.78857 3.91637 7.78857 4.23721 8.1094C4.55804 8.43024 4.55804 8.96128 4.23721 9.28211L2.58878 10.9195C1.36075 12.1586 1.36075 14.1832 2.58878 15.4222C3.18619 16.0197 3.99382 16.3516 4.83463 16.3516C5.67544 16.3516 6.48306 16.0197 7.08048 15.4112L8.81742 13.6742C9.13825 13.3534 9.66929 13.3534 9.99013 13.6742C10.311 13.9951 10.311 14.5261 9.99013 14.847L8.25319 16.5839C7.33493 17.5021 6.11797 18 4.82356 18L4.84569 18.0111Z" fill="black"/>
<path d="M13.1211 13.7738C12.9109 13.7738 12.6897 13.6964 12.5348 13.5304L4.55813 5.50953C4.2373 5.18869 4.2373 4.65765 4.55813 4.33682C4.87897 4.01598 5.41001 4.01598 5.73084 4.33682L13.7075 12.3577C14.0283 12.6786 14.0283 13.2096 13.7075 13.5304C13.5415 13.6964 13.3313 13.7738 13.1211 13.7738Z" fill="black"/>
</svg>
