<?xml version="1.0" encoding="UTF-8"?>
<svg id="Layer_1" data-name="Layer 1" xmlns="http://www.w3.org/2000/svg" version="1.1" viewBox="0 0 636 744">
  <defs>
    <style>
      .cls-1 {
        fill: #fff;
        stroke-width: 0px;
      }
    </style>
  </defs>
  <path class="cls-1" d="M564,89.3l-22.2,587.9c-.6,16.9-15,30.7-31.8,30.7H126c-16.8,0-31.2-13.9-31.8-30.7L72,89.3c-.4-9.9-8.7-17.7-18.7-17.3s-17.7,8.7-17.3,18.7l22.2,587.9c1.4,36.2,31.6,65.4,67.8,65.4h384c36.1,0,66.4-29.2,67.8-65.4l22.2-587.9c.4-9.9-7.4-18.3-17.3-18.7-9.9-.4-18.3,7.4-18.7,17.3Z"/>
  <path class="cls-1" d="M306,185.5v444.5c0,9.9,8.1,18,18,18s18-8.1,18-18V185.5c0-9.9-8.1-18-18-18s-18,8.1-18,18Z"/>
  <path class="cls-1" d="M167.1,186.6l12.9,444c.3,9.9,8.6,17.8,18.5,17.5,9.9-.3,17.8-8.6,17.5-18.5l-12.9-444c-.3-9.9-8.6-17.8-18.5-17.5-9.9.3-17.8,8.6-17.5,18.5h0Z"/>
  <path class="cls-1" d="M431.5,184.5l-11.5,445c-.3,9.9,7.5,18.2,17.5,18.5,9.9.3,18.2-7.5,18.5-17.5l11.5-445c.3-9.9-7.5-18.2-17.5-18.5-9.9-.3-18.2,7.5-18.5,17.5h0Z"/>
  <path class="cls-1" d="M18,102h600c9.9,0,18-8.1,18-18s-8.1-18-18-18H18c-9.9,0-18,8.1-18,18s8.1,18,18,18Z"/>
  <path class="cls-1" d="M214.7,84.7l12.8-32.1c3.4-8.5,15.3-16.6,24.4-16.6h132c9.2,0,21,8,24.4,16.6l12.8,32.1,33.4-13.4-12.8-32.1C433,16.9,407.9,0,384,0h-132c-23.9,0-49,17-57.9,39.2l-12.8,32.1,33.4,13.4Z"/>
</svg>