<?xml version="1.0" encoding="UTF-8"?>
<svg id="Layer_1" xmlns="http://www.w3.org/2000/svg" version="1.1" viewBox="0 0 1200 1200">
  <!-- Generator: Adobe Illustrator 29.1.0, SVG Export Plug-In . SVG Version: 2.1.0 Build 142)  -->
  <g id="Layer_11" data-name="Layer_1">
    <g>
      <path d="M600,903.3c-93.7,0-184-23.3-268.6-69.2-84.2-45.7-164.7-114.9-239.2-205.8-10.3-12.4-10.9-30.4-1.6-43.6,74.4-105.8,154.9-186.5,239.2-239.8,84.9-53.7,175.8-80.9,270.2-80.9s185.2,27.2,270.2,80.9c84.3,53.3,164.8,134,239.3,239.8,9.3,13.1,8.7,31-1.6,43.5-74.5,90.9-155,160.1-239.2,205.8-84.6,45.9-175,69.2-268.6,69.2ZM165.7,603.7c65.2,75.3,134.5,132.5,206,170.2,72.2,38,149.1,57.3,228.4,57.3s156.2-19.3,228.4-57.3c71.5-37.7,140.8-94.9,206-170.2-65.5-88.7-135.1-156.1-206.8-200.5-72.1-44.6-148.7-67.2-227.6-67.2h-.1c-78.9,0-155.5,22.6-227.6,67.2-71.7,44.4-141.2,111.8-206.7,200.5ZM600,792.3c-116.1,0-210.5-94.4-210.5-210.5s94.4-210.5,210.5-210.5,109.1,21.9,148.9,61.7c39.7,39.8,61.6,92.6,61.6,148.8,0,116.1-94.4,210.5-210.5,210.5ZM600,443.3c-76.4,0-138.5,62.1-138.5,138.5s62.1,138.5,138.5,138.5,138.5-62.1,138.5-138.5-62.1-138.5-138.5-138.5ZM523.2,633.5c-19.9,0-36-16.1-36-36,0-68,55.3-123.3,123.3-123.3s36,16.1,36,36-16.1,36-36,36c-28.3,0-51.3,23-51.3,51.3s-14.8,36-31.3,36-3.9,0-4.7,0Z"/>
      <path d="M600,270c187.6,0,356.1,107.2,504.5,318.2,7.8,11,7.2,25.9-1.3,36.3-148.6,181.1-316.8,272.8-503.2,272.8s-354.6-91.7-503.2-272.8c-8.6-10.4-9.1-25.3-1.3-36.3,148.4-211,316.9-318.2,504.5-318.2M600,837.2c161.1,0,308.1-77,442.1-233.2-134.5-183.7-281.6-274-442-274h0c-160.5,0-307.6,90.3-442,274,134,156.2,280.9,233.2,442,233.2M600,377.3c113,0,204.5,91.6,204.5,204.5s-91.6,204.5-204.5,204.5-204.5-91.6-204.5-204.5,91.6-204.5,204.5-204.5M600,726.3c79.8,0,144.5-64.7,144.5-144.5s-64.7-144.5-144.5-144.5-144.5,64.7-144.5,144.5,64.7,144.5,144.5,144.5M610.5,480.2c16.6,0,30,13.4,30,30s-13.4,30-30,30c-31.6,0-57.3,25.6-57.3,57.3s-10.9,30-25.3,30-3.1,0-4.7,0c-16.6,0-30-13.4-30-30,0-64.8,52.5-117.3,117.3-117.3M600,258c-47.8,0-95.1,6.9-140.6,20.6-45.3,13.6-90,34.2-132.8,61.3-42.6,26.9-84.5,61-124.6,101.2-39.9,40-79,87.2-116.4,140.3-10.9,15.4-10.2,36.3,1.9,50.9,37.4,45.6,76.6,86.1,116.5,120.5,40.1,34.5,81.9,63.7,124.4,86.7,42.7,23.2,87.1,40.8,132.1,52.4,45.1,11.6,92,17.5,139.4,17.5s94.2-5.9,139.4-17.5c45-11.6,89.5-29.2,132.1-52.4,42.5-23.1,84.4-52.3,124.4-86.7,39.9-34.3,79.1-74.9,116.6-120.5,11.9-14.6,12.7-35.5,1.8-50.9-37.3-53.1-76.5-100.3-116.3-140.3-40.1-40.2-82-74.2-124.6-101.2-42.8-27.1-87.5-47.7-132.8-61.3-45.5-13.6-92.8-20.6-140.6-20.6h0ZM173.4,603.4c31.3-42,63.6-79.3,96.2-111.1,34.4-33.5,70-61.7,106-84,35.7-22.1,72.7-38.8,110-49.8,37.1-10.9,75.6-16.5,114.5-16.5h0c38.8,0,77.3,5.5,114.4,16.5,37.3,11,74.3,27.8,110,49.8,35.9,22.2,71.6,50.5,106,84,32.6,31.8,65,69.1,96.3,111.1-31,35.4-63,66.9-95.3,93.7-34.3,28.5-69.9,52.5-105.9,71.5-35.8,18.8-72.9,33.1-110.3,42.5-37.4,9.4-76.1,14.1-115.3,14.1s-77.9-4.7-115.3-14.1c-37.4-9.4-74.6-23.7-110.3-42.5-35.9-18.9-71.5-43-105.8-71.5-32.3-26.8-64.3-58.3-95.3-93.7h0ZM600,365.3c-29.2,0-57.6,5.7-84.3,17-25.8,10.9-48.9,26.5-68.8,46.4-19.9,19.9-35.5,43-46.4,68.8-11.3,26.7-17,55-17,84.3s5.7,57.6,17,84.3c10.9,25.8,26.5,48.9,46.4,68.8,19.9,19.9,43,35.5,68.8,46.4,26.7,11.3,55,17,84.3,17s57.6-5.7,84.3-17c25.8-10.9,48.9-26.5,68.8-46.4,19.9-19.9,35.5-43,46.4-68.8,11.3-26.7,17-55,17-84.3s-5.7-57.6-17-84.3c-10.9-25.8-26.5-48.9-46.4-68.8-19.9-19.9-43-35.5-68.8-46.4-26.7-11.3-55.1-17-84.3-17h0ZM600,714.3c-35.4,0-68.7-13.8-93.7-38.8-25-25-38.8-58.3-38.8-93.7s13.8-68.7,38.8-93.7,58.3-38.8,93.7-38.8,68.7,13.8,93.7,38.8,38.8,58.3,38.8,93.7-13.8,68.7-38.8,93.7c-25,25-58.3,38.8-93.7,38.8h0ZM610.5,468.2c-34.5,0-67,13.4-91.4,37.9-24.4,24.4-37.9,56.9-37.9,91.4s18.8,42,42,42,1.6,0,2.4,0c.8,0,1.6,0,2.4,0,8.9,0,18.2-.6,25.9-7.2,10.2-8.9,11.4-24.1,11.4-34.8,0-25,20.3-45.3,45.3-45.3s42-18.8,42-42-18.8-42-42-42h0Z"/>
    </g>
  </g>
</svg>