<svg width="84" height="84" viewBox="0 0 84 84" fill="none" xmlns="http://www.w3.org/2000/svg">
<path d="M73.8035 0.351807H10.1982C4.76953 0.351807 0.3526 4.76918 0.3526 10.1974V73.8027C0.3526 79.2314 4.76997 83.6484 10.1982 83.6484H73.8035C79.2322 83.6484 83.6492 79.231 83.6492 73.8027V10.1974C83.6478 4.76768 79.2323 0.351807 73.8035 0.351807ZM10.1982 5.55764H73.8035C76.3617 5.55764 78.4438 7.63869 78.4438 10.1979V63.9973L39.4658 25.0193C37.4952 23.0487 34.8666 21.9635 32.0651 21.9635C29.2637 21.9635 26.6344 23.0483 24.6645 25.0193L5.55799 44.1267V10.1979C5.55799 7.6386 7.63904 5.55764 10.1982 5.55764ZM73.8035 78.4424H10.1982C7.64001 78.4424 5.55799 76.3613 5.55799 73.8021V51.4882L28.3462 28.7C29.3338 27.7124 30.6543 27.1683 32.0659 27.1683C33.4774 27.1683 34.798 27.7125 35.7855 28.7L78.4425 71.3571V73.8004C78.4425 76.361 76.3617 78.4424 73.8035 78.4424ZM62.2902 32.1999C67.8182 32.1999 72.316 27.7025 72.316 22.174C72.316 16.6459 67.8186 12.1482 62.2902 12.1482C56.7621 12.1482 52.2661 16.6456 52.2661 22.174C52.2658 27.7017 56.7621 32.1999 62.2902 32.1999ZM62.2902 17.3554C64.9478 17.3554 67.1088 19.5176 67.1088 22.1741C67.1088 24.8307 64.9467 26.9928 62.2902 26.9928C59.6326 26.9928 57.4715 24.8307 57.4715 22.1741C57.4715 19.5176 59.6326 17.3554 62.2902 17.3554Z" fill="black"/>
</svg>
