<?xml version="1.0" encoding="UTF-8"?>
<svg id="Layer_1" data-name="Layer 1" xmlns="http://www.w3.org/2000/svg" version="1.1" viewBox="0 0 18 19.6">
  <defs>
    <style>
      .cls-1 {
        fill: #000;
        fill-rule: evenodd;
        stroke: #000;
        stroke-miterlimit: 10;
        stroke-width: .2px;
      }
    </style>
  </defs>
  <path class="cls-1" d="M1.2,19.1h15.2c.4,0,.7-.3.7-.7s-.3-.7-.7-.7H1.2c-.4,0-.7.3-.7.7s.3.7.7.7ZM16.7,5.6c1.1-1,1.1-2.7,0-3.7l-.7-.7c-1.1-1-2.8-1-3.8,0L2.5,10.6c-.4.4-.6.9-.6,1.4v2.9c0,.4.3.7.7.7h3c.5,0,1.1-.2,1.4-.6l9.7-9.3ZM10.9,4.4l2.6,2.5-7.4,7.2c-.1.1-.3.2-.5.2h-2.4v-2.3c0-.2,0-.3.2-.5l7.4-7.2ZM14.4,6l-2.6-2.5,1.3-1.3c.5-.5,1.4-.5,1.9,0,.2.2.5.5.7.7.5.5.5,1.3,0,1.8l-1.3,1.3Z"/>
</svg>