<svg width="20" height="18" viewBox="0 0 20 18" fill="none" xmlns="http://www.w3.org/2000/svg">
<path d="M7.15834 3.3008L7.91277 1.54913C7.9909 1.35211 8.26433 1.16635 8.47081 1.16635H11.4898C11.7018 1.16635 11.9697 1.35211 12.0478 1.54913L12.8109 3.30655L13.5754 2.99695L12.8123 1.23953C12.6114 0.727278 12.0422 0.338867 11.4954 0.338867H8.47639C7.92951 0.338867 7.35474 0.732907 7.15384 1.24516L6.39941 2.99683L7.15834 3.3008Z" fill="#E81515"/>
<path d="M12.4217 3.06175L11.8415 1.63307C11.7968 1.51993 11.6099 1.39158 11.4905 1.39158H8.47148C8.35485 1.39158 8.16456 1.52218 8.12047 1.63307L7.58036 3.05443L6.40625 2.5844L6.94692 1.16135C7.1813 0.564664 7.83922 0.11377 8.47706 0.11377H11.496C12.1322 0.11377 12.7873 0.562412 13.0206 1.15685L13.6003 2.5844L12.4217 3.06175ZM7.14949 1.86218L7.49324 2.00009L7.70641 1.46533C7.8169 1.18612 8.1746 0.941253 8.47148 0.941253H11.4905C11.7923 0.941253 12.1428 1.18162 12.2555 1.46533L12.4681 1.99897L12.8186 1.85711L12.606 1.32291C12.4386 0.896783 11.9514 0.563538 11.496 0.563538H8.47706C8.02003 0.563538 7.53007 0.899034 7.3621 1.32741L7.14949 1.86218Z" fill="#E81515"/>
<path d="M15.6282 3.93154L15.126 16.1243C15.1093 16.5127 14.78 16.8335 14.395 16.8335H5.60591C5.22087 16.8335 4.89163 16.5127 4.87489 16.1243L4.37265 3.93154C4.36149 3.70074 4.17176 3.52624 3.94297 3.53187C3.71417 3.5375 3.54118 3.73452 3.54676 3.96531L4.04899 16.158C4.08248 16.9911 4.78002 17.661 5.60591 17.661H14.395C15.2209 17.661 15.9184 16.9911 15.9519 16.158L16.4541 3.96531C16.4653 3.73452 16.2867 3.54313 16.0579 3.53187C15.8291 3.52624 15.6338 3.70074 15.6282 3.93154Z" fill="#E81515"/>
<path d="M14.3949 17.8862H5.60582C4.66218 17.8862 3.86419 17.115 3.82569 16.1671L3.32345 3.97494C3.31452 3.61355 3.59019 3.31577 3.93729 3.30677C4.28997 3.30001 4.57848 3.56796 4.59522 3.92034L5.09745 16.1147C5.10917 16.3821 5.34187 16.6084 5.60526 16.6084H14.3943C14.6583 16.6084 14.891 16.3821 14.9021 16.1147L15.4044 3.92428C15.4139 3.58034 15.7001 3.30677 16.0461 3.30677C16.0517 3.30677 16.0567 3.30677 16.0623 3.30677C16.42 3.32422 16.6929 3.62481 16.6761 3.97607L16.1739 16.1671C16.136 17.1145 15.3374 17.8857 14.3938 17.8857L14.3949 17.8862ZM3.95348 3.7571C3.95348 3.7571 3.95013 3.7571 3.9479 3.7571C3.84689 3.75935 3.76653 3.85054 3.76932 3.95975L4.27156 16.1485C4.30002 16.8584 4.89823 17.4359 5.60526 17.4359H14.3943C15.1014 17.4359 15.6996 16.8584 15.728 16.1491L16.2303 3.95637C16.2353 3.84941 16.1544 3.76273 16.0461 3.7571C15.944 3.75541 15.853 3.83534 15.8502 3.93723V3.94117L15.348 16.1339C15.3262 16.6444 14.8982 17.0588 14.3938 17.0588H5.60582C5.10191 17.0588 4.6739 16.6439 4.65158 16.1339L4.14935 3.94117C4.14432 3.8359 4.06062 3.7571 3.95348 3.7571Z" fill="#E81515"/>
<path d="M9.60083 5.05665V14.8981C9.60083 15.1393 9.81793 15.3334 10.0877 15.3334C10.3574 15.3334 10.5745 15.1393 10.5745 14.8981V5.05665C10.5745 4.81546 10.3574 4.62134 10.0877 4.62134C9.81793 4.62134 9.60083 4.81546 9.60083 5.05665Z" fill="#E81515"/>
<path d="M10.0876 15.5682C9.67383 15.5682 9.33765 15.2676 9.33765 14.8976V5.05611C9.33765 4.6861 9.67383 4.3855 10.0876 4.3855C10.5015 4.3855 10.8376 4.6861 10.8376 5.05611V14.8976C10.8376 15.2676 10.5015 15.5682 10.0876 15.5682ZM10.0876 4.8561C9.96199 4.8561 9.86396 4.94375 9.86396 5.05611V14.8976C9.86396 15.0099 9.96199 15.0976 10.0876 15.0976C10.2133 15.0976 10.3113 15.0099 10.3113 14.8976V5.05611C10.3113 4.94375 10.2133 4.8561 10.0876 4.8561Z" fill="#E81515"/>
<path d="M6.32168 5.06832L6.64002 14.9098C6.64651 15.151 6.8674 15.3392 7.13376 15.3333C7.40012 15.3275 7.60801 15.1275 7.60152 14.8863L7.27669 5.03891C7.27019 4.79773 7.0493 4.60949 6.78294 4.61537C6.52308 4.62713 6.31518 4.82714 6.32168 5.06832Z" fill="#E81515"/>
<path d="M7.12199 15.5683C6.72115 15.5683 6.39047 15.2789 6.38008 14.9153L6.06174 5.07387C6.052 4.70974 6.36968 4.39856 6.76987 4.38032H6.77637C7.18436 4.3715 7.52608 4.66386 7.53648 5.03328L7.86131 14.8795C7.87105 15.2512 7.54752 15.5595 7.14018 15.5689C7.13434 15.5689 7.12784 15.5689 7.12199 15.5689V15.5683ZM6.58147 5.06152L6.89981 14.9024C6.90241 15.0118 7.0018 15.0977 7.12199 15.0977C7.12394 15.0977 7.12589 15.0977 7.12784 15.0977C7.25127 15.0948 7.34548 15.0042 7.34223 14.8918L7.0174 5.04564C7.0161 4.99093 6.99141 4.94152 6.94918 4.90504C6.90695 4.86916 6.85173 4.84798 6.79326 4.85034C6.67372 4.85739 6.57952 4.95152 6.58212 5.06152H6.58147Z" fill="#E81515"/>
<path d="M12.5785 5.03902L12.2602 14.8805C12.2537 15.1217 12.4616 15.3217 12.7279 15.3276C12.9943 15.3335 13.2152 15.1452 13.2217 14.904L13.54 5.06255C13.5465 4.82137 13.3386 4.62136 13.0722 4.61548C12.8124 4.61548 12.5915 4.80372 12.5785 5.03902Z" fill="#E81515"/>
<path d="M12.7402 15.5623C12.7337 15.5623 12.7278 15.5623 12.7213 15.5623C12.5232 15.5582 12.3387 15.4841 12.2029 15.3535C12.0678 15.2235 11.9957 15.0535 12.0002 14.8741L12.3185 5.02672C12.3387 4.66377 12.6694 4.37964 13.0722 4.37964C13.486 4.38846 13.8095 4.6973 13.7998 5.06789L13.4814 14.9106C13.4769 15.0888 13.395 15.2559 13.2508 15.3788C13.1124 15.4976 12.9312 15.5623 12.7402 15.5623ZM12.8383 5.04848L12.5199 14.887C12.5186 14.94 12.5401 14.9911 12.5804 15.03C12.6206 15.0682 12.6752 15.0906 12.7343 15.0917C12.796 15.0929 12.8506 15.0735 12.8941 15.037C12.9364 15.0006 12.9611 14.9511 12.9624 14.8982L13.2807 5.05554C13.2833 4.94554 13.1878 4.85318 13.0663 4.85083C12.95 4.85083 12.8461 4.93966 12.8383 5.04907V5.04848Z" fill="#E81515"/>
<path d="M3.13609 3.64317H16.8638C17.0926 3.64317 17.2767 3.45741 17.2767 3.22661C17.2767 2.99582 17.0926 2.81006 16.8638 2.81006H3.13609C2.9073 2.81006 2.72314 2.99582 2.72314 3.22661C2.72314 3.45741 2.9073 3.64317 3.13609 3.64317Z" fill="#E81515"/>
<path d="M16.8638 3.8684H3.13616C2.78516 3.8684 2.5 3.58076 2.5 3.22668C2.5 2.87261 2.78516 2.58496 3.13616 2.58496H16.8638C17.2148 2.58496 17.5 2.87261 17.5 3.22668C17.5 3.58076 17.2148 3.8684 16.8638 3.8684ZM3.13616 3.03529C3.02958 3.03529 2.94643 3.11917 2.94643 3.22668C2.94643 3.3342 3.02958 3.41807 3.13616 3.41807H16.8638C16.9704 3.41807 17.0536 3.3342 17.0536 3.22668C17.0536 3.11917 16.9704 3.03529 16.8638 3.03529H3.13616Z" fill="#E81515"/>
</svg>
