<?xml version="1.0" encoding="UTF-8"?>
<svg id="Layer_1" data-name="Layer 1" xmlns="http://www.w3.org/2000/svg" version="1.1" viewBox="0 0 16 17">
  <defs>
    <style>
      .cls-1 {
        fill: #000;
        stroke-width: 0px;
      }
    </style>
  </defs>
  <path class="cls-1" d="M12.7,9.6c-.2,0-.4,0-.5-.2-.3-.3-.3-.7,0-1l1.5-1.6c.5-.5.8-1.2.8-2s-.3-1.5-.8-2c-.5-.5-1.2-.8-2-.8s-1.5.3-2,.8l-1.5,1.6c-.3.3-.7.3-1,0-.3-.3-.3-.7,0-1l1.5-1.6c.8-.8,1.9-1.3,3-1.3s2.2.4,3,1.3c.8.8,1.3,1.9,1.3,3s-.4,2.2-1.3,3l-1.5,1.6c-.1.2-.3.2-.5.2Z"/>
  <path class="cls-1" d="M4.3,16.5c-1.1,0-2.2-.4-3-1.3-1.7-1.7-1.7-4.4,0-6.1l1.5-1.5c.3-.3.8-.3,1,0,.3.3.3.8,0,1l-1.5,1.5c-1.1,1.1-1.1,2.9,0,4,.5.5,1.2.8,2,.8s1.5-.3,2-.8l1.5-1.5c.3-.3.8-.3,1,0,.3.3.3.8,0,1l-1.5,1.5c-.8.8-1.9,1.3-3,1.3h0Z"/>
  <path class="cls-1" d="M4.5,12.7c-.2,0-.4,0-.5-.2-.3-.3-.3-.8,0-1l7.1-7.1c.3-.3.8-.3,1,0,.3.3.3.8,0,1l-7.1,7.1c-.1.1-.3.2-.5.2Z"/>
</svg>