<svg width="9" height="12" viewBox="0 0 9 12" fill="none" xmlns="http://www.w3.org/2000/svg">
<path d="M1.08147 2.24545L3.92253 0.553089C4.37104 0.285898 4.94359 0.439311 5.19901 0.89512C5.5535 1.52929 5.62955 2.2776 5.4163 2.97679L5.86277 3.77512C6.94401 3.74234 7.98738 4.2009 8.69468 5.03131C8.87281 5.24039 8.94772 5.52019 8.90088 5.7993C8.85255 6.08599 8.68361 6.33472 8.43713 6.48138L6.43768 7.67253L8.12724 10.6937C8.23411 10.8848 8.16832 11.1303 7.98024 11.2422C7.88612 11.2983 7.77953 11.3103 7.68288 11.2844C7.58623 11.2585 7.49993 11.1948 7.44646 11.0992L5.75689 8.0781L3.79698 9.24569C3.57779 9.37593 3.32138 9.41147 3.08116 9.3471C3.05147 9.33915 3.02188 9.32956 2.99265 9.31862C2.7351 9.22111 2.53788 9.014 2.45151 8.75043C2.10888 7.70268 2.24607 6.54074 2.81428 5.59122L2.36767 4.79263C1.67083 4.63353 1.08436 4.19138 0.729874 3.55721C0.475053 3.10156 0.632522 2.51308 1.08139 2.24532L1.08159 2.24537L1.08147 2.24545Z" fill="white"/>
</svg>
