<svg width="14" height="14" viewBox="0 0 14 14" fill="none" xmlns="http://www.w3.org/2000/svg">
<path d="M6.88661 5.72374V10.7635C6.88661 10.8828 6.95029 10.9929 7.05349 11.0526C7.15669 11.1121 7.28405 11.1121 7.38725 11.0526C7.49045 10.9929 7.55413 10.8828 7.55413 10.7635V5.72374C8.13875 5.63936 8.6697 5.33671 9.04017 4.87665C9.41065 4.41659 9.59302 3.83331 9.55069 3.24402C9.50837 2.65486 9.24457 2.10362 8.81215 1.7011C8.37986 1.29858 7.81099 1.07483 7.22037 1.07483C6.62974 1.07483 6.06101 1.29858 5.62859 1.70097C5.19617 2.10348 4.93236 2.65473 4.89004 3.24388C4.84772 3.83304 5.03022 4.41632 5.40056 4.87651C5.77104 5.33657 6.30199 5.63923 6.88661 5.7236V5.72374ZM7.22037 1.75197C7.66294 1.75197 8.08748 1.92779 8.40042 2.24073C8.71349 2.55366 8.88918 2.97808 8.88918 3.42078C8.88918 3.86348 8.71335 4.28789 8.40042 4.60083C8.08748 4.9139 7.66307 5.08959 7.22037 5.08959C6.77767 5.08959 6.35325 4.91376 6.04032 4.60083C5.72725 4.28789 5.55156 3.86348 5.55156 3.42078C5.55156 2.97808 5.72738 2.55366 6.04032 2.24073C6.35325 1.92766 6.77767 1.75197 7.22037 1.75197Z" fill="white" stroke="white" stroke-width="0.317074"/>
<path d="M9.26944 8.42733C9.15022 8.41064 9.03114 8.45884 8.95704 8.55376C8.88295 8.64868 8.86519 8.77591 8.91032 8.88752C8.95544 8.99913 9.05677 9.07817 9.17599 9.09486C11.3321 9.39524 12.8941 10.2096 12.8941 11.0307C12.8941 12.0053 10.5644 13.1 7.22014 13.1C3.87585 13.1 1.54619 12.0051 1.54619 11.0305C1.54619 10.2095 3.10819 9.39511 5.2643 9.09472C5.35161 9.0799 5.43011 9.03224 5.48338 8.96148C5.53678 8.89073 5.56108 8.80221 5.55133 8.71423C5.53812 8.62612 5.49086 8.54669 5.4197 8.49302C5.34854 8.43935 5.25922 8.41572 5.17084 8.4272C2.54747 8.80115 0.878662 9.82246 0.878662 11.0307C0.878662 12.5927 3.60216 13.7675 7.22014 13.7675C10.8381 13.7675 13.5616 12.5927 13.5616 11.0307C13.5616 9.82246 11.8928 8.80114 9.26944 8.42733Z" fill="white" stroke="white" stroke-width="0.317074"/>
</svg>
