<?xml version="1.0" encoding="UTF-8"?>
<svg id="Layer_1" data-name="Layer 1" xmlns="http://www.w3.org/2000/svg" xmlns:xlink="http://www.w3.org/1999/xlink" version="1.1" viewBox="0 0 825.7 728">
  <defs>
    <style>
      .cls-1 {
        clip-path: url(#clippath);
      }

      .cls-2 {
        fill: none;
      }

      .cls-2, .cls-3 {
        stroke-width: 0px;
      }

      .cls-3 {
        fill: #fff;
      }
    </style>
    <clipPath id="clippath">
      <rect class="cls-2" x="0" width="825.7" height="728"/>
    </clipPath>
  </defs>
  <g class="cls-1">
    <path class="cls-3" d="M219.7.6l104.2,52.2c80.3,40.2,131.4,122.5,131.4,212.3v339.8c61.2-1.1,111.6-51.5,111.6-113v-151.2h130l-11.2,11.2c-7,7.1-11,16.7-11,26.6s4,19.6,11,26.6c7.1,7,16.7,11,26.6,11s19.6-4,26.6-11l73.6-73.7c8.3-7.1,13.1-17.5,13.1-28.5,0-10.7-4.5-21-12.5-28.2-.1-.1-.2-.2-.4-.4l-73.9-73.8h0c-7.4-7.4-17.5-11.4-27.9-11.1-9.6.4-18.6,4.3-25.4,11.1-7.1,7.1-11.1,16.7-11.1,26.8s4,19.7,11.1,26.8l10.9,10.9h-129.6V113.9c0-62.2-51.4-113.3-113.6-113.3h-233.6ZM80,29.9C37.9,33,0,68,0,113.9v369.1c0,66,37.1,126.7,96.2,156.3l159.4,79.5c54.8,27.4,122.2-14.3,122.2-75.6v-378.1c0-60.6-34.3-116-88.4-143.1L122.2,38.3c-13.7-6.8-28.2-9.4-42.2-8.3h0Z"/>
  </g>
</svg>