<svg width="20" height="20" viewBox="0 0 20 20" fill="none" xmlns="http://www.w3.org/2000/svg">
<g clip-path="url(#clip0_168_738)">
<path d="M12.395 0C16.5964 0 20 3.40523 20 7.60131C20 11.7974 16.5964 15.2026 12.395 15.2026C10.9498 15.2026 9.59621 14.8007 8.44532 14.098C8.37666 14.2516 8.29165 14.3987 8.17721 14.5294L3.80579 19.4641C3.49845 19.8137 3.06032 20 2.62547 20C2.22331 20 1.81462 19.8399 1.51055 19.5327L0.46755 18.4902C0.16021 18.1863 0 17.7778 0 17.3725C0 16.9379 0.186367 16.5033 0.532942 16.1928L5.47 11.8268C5.60078 11.7124 5.74792 11.6275 5.89832 11.5588C5.19536 10.4052 4.78993 9.05229 4.78993 7.60457C4.78993 3.40196 8.19683 0 12.395 0ZM16.8514 12.0523C17.9925 10.9118 18.6954 9.33987 18.6954 7.60131C18.6954 5.86274 17.9925 4.29085 16.8514 3.15033C15.7103 2.0098 14.1376 1.30719 12.3982 1.30719C10.6588 1.30719 9.08615 2.0098 7.94507 3.15033C6.80399 4.29085 6.10103 5.86274 6.10103 7.60131C6.10103 9.33987 6.76149 10.8007 7.83391 11.9314L8.06278 12.1601C9.19405 13.2353 10.7144 13.8954 12.3982 13.8954C14.1376 13.8987 15.707 13.1928 16.8514 12.0523ZM6.59474 12.7124C6.49338 12.7124 6.40183 12.7484 6.33971 12.8039L1.40592 17.1765C1.33726 17.2386 1.3111 17.3072 1.3111 17.3791C1.3111 17.4444 1.33399 17.5098 1.39284 17.5719L2.43583 18.6144C2.49796 18.6765 2.56008 18.6961 2.62547 18.6961C2.6974 18.6961 2.76279 18.6699 2.82818 18.6013L7.19961 13.6667C7.25519 13.6013 7.29116 13.5098 7.29116 13.4118C7.29116 13.3072 7.25192 13.2092 7.1898 13.1438C7.07863 13.0392 6.96747 12.9281 6.86284 12.817C6.79745 12.7516 6.69936 12.7124 6.59474 12.7124Z" fill="black"/>
</g>
<defs>
<clipPath id="clip0_168_738">
<rect width="20" height="20" fill="white" transform="matrix(-1 0 0 1 20 0)"/>
</clipPath>
</defs>
</svg>
