<svg width="20" height="18" viewBox="0 0 20 18" fill="none" xmlns="http://www.w3.org/2000/svg">
<path fill-rule="evenodd" clip-rule="evenodd" d="M2.17906 17.5H17.4241C17.799 17.5 18.1032 17.2075 18.1032 16.847C18.1032 16.4866 17.799 16.1941 17.4241 16.1941H2.17906C1.80422 16.1941 1.5 16.4866 1.5 16.847C1.5 17.2075 1.80422 17.5 2.17906 17.5ZM17.7043 5.64229C18.7652 4.62244 18.7652 2.96861 17.7043 1.94841L16.9937 1.26515C15.9328 0.244951 14.213 0.244951 13.1522 1.26515L3.4546 10.5902C3.07251 10.9576 2.85793 11.4556 2.85793 11.9754V14.8881C2.85793 15.2487 3.16197 15.5411 3.53699 15.5411H6.56612C7.10647 15.5411 7.62455 15.3348 8.00663 14.9674L17.7043 5.64229ZM11.8517 4.36247L14.4832 6.89285L7.04635 14.044C6.91905 14.1664 6.7463 14.2352 6.56612 14.2352H4.21605V11.9754C4.21605 11.8021 4.28757 11.636 4.41487 11.5136L11.8517 4.36247ZM15.4435 5.96947L12.812 3.43909L14.1125 2.18853C14.6429 1.67852 15.5029 1.67852 16.0333 2.18853C16.2676 2.41367 16.51 2.64683 16.744 2.87197C17.2744 3.38198 17.2744 4.2089 16.744 4.71891L15.4435 5.96947Z" fill="black"/>
</svg>
