<?xml version="1.0" encoding="UTF-8"?>
<svg id="Layer_1" data-name="Layer 1" xmlns="http://www.w3.org/2000/svg" version="1.1" viewBox="0 0 1096.3 1096.1">
  <defs>
    <style>
      .cls-1 {
        fill: #000;
        stroke: #000;
        stroke-linecap: round;
        stroke-linejoin: round;
        stroke-width: 21px;
      }
    </style>
  </defs>
  <path class="cls-1" d="M366.3,14.3L14.6,366c-3.9,3.9-6.1,9.2-6.1,14.8s.6,5.5,1.6,8c1.1,2.6,2.6,4.9,4.5,6.8h.1c3.3,3.4,7.6,6.6,13.3,9.8,3.4,1.9,9.3,4.4,15.9,7.1,4.3,1.8,5.6,2.6,5.3,2.5-1.3-.5-1.3-.5.1,0,16.9,6.3,39.2,12.4,66.6,19.9h0s5.9,1.6,5.9,1.6h.1c14.6,4.1,30,8.3,46.2,13.1,10,3,19.2,6.4,27.8,9.3,8.4,2.8,17.8,5.5,27.8,9.3h0s4.5,1.8,4.5,1.8l.3.3c7.5,3,15,6,22.3,9.3h0c8.8,4,17.4,8.3,25.6,12.8h0s2.7,1.5,2.7,1.5l.7.7c6.9,4,13.7,8.1,20,12.6h.1c0,.1,1.5,1.1,1.5,1.1l1.4,1.4c6.3,4.7,12.3,9.5,17.8,15h0c19.2,19.3,27,45.5,31.6,73.5,4.6,28,5.8,58.9,7,90,.3,8.4,1.1,17.8,1.5,27.4v.6s0,.7,0,.7c0,3.8,0,4.1-.2,1.3.2,2.8.7,7,1,12.1.7,11,1.4,21.6,2.5,32.1h0c.5,4.8.9,9,1.4,12.9.3,2.2.8,4.8,1.3,8.1,1,6.5,2.1,13,3.4,19.5.6,2.8,1.2,5.5,1.8,8.4,1.4,6,3.1,12.1,5,18.2,1,3.2,1.9,6.1,2.7,8.5,1.9,5.4,4.2,10.9,6.9,16.8,1.5,3.4,2.6,6,3.5,7.8,2.5,4.9,5.6,10.1,9.1,15.6,2.4,3.8,3.7,6.2,4.4,7.1,5,7,10.5,13.6,16.7,19.8,4,4,4.1,4.1.3.4,1.1,1.1,2.1,1.9,3.3,2.7h0c0,0,.1,0,.1,0,1.2.8,2.4,1.5,3.4,1.9h.1c2.5,1,5.2,1.6,7.9,1.6,5.4,0,10.5-1.9,14.8-6.2l210.6-210.6,390.7,386.4h0c1.8,1.9,4,3.3,6.7,4.4,2.8,1.2,5.5,1.7,7.9,1.7-.2,0,1.9-.4,6-1.6,2.5-.7,3.1-.9,4-1.2.3-.2.2,0,.6-.3,3.3-1.9,3-1.8.8-.3h0c-1.1.6-.4.1,1.6-1.5h0c2.5-2,2.9-2.3,1.7-1.2h.1c-.9.8-.7.5,1.3-2h0c2-2.5,2.2-2.9,1.3-1.4-.9,1.4-.6,1,.8-1.5.2-.4,0-.1.2-.4.2-.9.3-1.4,1-3.6,1.2-4,1.5-6,1.5-6,0-2.6-.5-5.3-1.6-8-1.1-2.6-2.5-4.8-4.4-6.7l-386.4-390.7,210.5-210.5c4.2-4.2,6.2-9.5,6.2-14.8s-.6-5.3-1.6-7.8v-.2c-.6-1.2-1.2-2.4-1.9-3.4h-.1c-.7-1.3-1.6-2.4-2.6-3.4h0c3.8,3.7,3.6,3.7-.4-.3-6.3-6.2-12.8-11.7-19.8-16.7-1.2-.9-3.9-2.3-7.8-4.8-5.3-3.3-10.1-6.3-14.3-8.5h0c-2.5-1.3-6-2.7-10.3-4.6-5.2-2.3-9.9-4.3-14.2-5.9h0c-2.8-1.1-6-2-9.6-3.1-6-1.8-11.9-3.5-17.7-4.9-2.8-.6-5.6-1.3-8.4-1.8-6.2-1.3-12.4-2.4-18.7-3.4-3.7-.6-7-1.1-9.7-1.5-3.5-.4-7.3-.8-11.5-1.3-10.3-1.1-20.8-1.8-31.7-2.4h0c-5.4-.4-10-.9-13-1.1,2.4.1,2.1.1-1.4.2h-.8s-.7,0-.7,0c-9.6-.4-18.8-1.2-27.1-1.5-31.1-1.2-62-2.3-90-7-28-4.7-54.3-12.5-73.5-31.7-12.5-12.5-23-27.6-32.2-44.1h0c0-.1-.1-.3-.1-.3-4.5-8.1-8.7-16.6-12.7-25.4h0c0-.1-2.1-4.5-2.1-4.5v-.5c-3.1-7.3-6.3-14.6-9.2-22.1h0c0-.1-1.5-4-1.5-4v-.7c-2.9-8.2-5.4-16.2-7.8-23.4-2.8-8.5-6.3-17.6-9.3-27.6-5.5-18.3-10.3-36.1-14.7-52.1h0c-.3-1.2-.5-1.9-.8-3h0c-3.4-12.5-6.6-24.1-9.6-34.4h0c0-.4-.2-.7-.3-1-1.3-4.4-2.7-8.4-4.4-13.7-1.8-5.7-3.5-11.3-4.8-14.8-3.1-8.4-6.3-15.4-9.6-21.1-3.3-5.8-6.5-10.2-9.7-13.5h0c-1.8-1.8-4.1-3.3-6.8-4.5h-.4c-2.3-1-4.9-1.6-7.6-1.6h-.2c-5.6,0-10.8,2.2-14.6,6v-.2ZM387.6,101.1c2.5,8.9,5,17.9,7.2,25.9,5,18.4,10.5,38.4,16.7,58.7,6.2,20.4,13.1,41.2,21.2,61.3,8.1,20.1,17.1,39.5,27.5,57.1,5.2,8.8,10.8,17.1,16.6,24.9h0c5.9,7.8,12,15,18.5,21.5-.6-.6,0-.2,1.9,1.5l.7.6.7.6c43.7,40.7,113.7,45.4,188.1,48.3,17.5.7,34.5,2,51.2,3.2,10.4.8,21.5,1.5,32.3,2.9,6.7.9,13.6,1.9,20.4,3.2,1.9.4,4.4.8,7.4,1.4h0c10.7,2.4,21.4,5.2,31.9,9.3l32.9,12.7-428.3,428.3-12.7-32.9c-3.9-10.2-6.7-20.6-9.1-30.9h0c-.8-3.6-1.3-7-1.9-10.2h0c-1.2-6.3-2-12.4-2.8-18.2-1.5-11.1-2.2-22.7-3.1-33.8h0c-1.2-16.3-2.4-32.9-3.1-50-3-76.4-7.4-147.9-51-191.5-19.5-19.5-45.2-35.9-73.9-49.7-47.8-22.9-103.4-38.2-149.5-50.8-8-2.2-17-4.7-25.9-7.2l-37.7-10.6L376.9,63.4l10.6,37.6Z"/>
</svg>