<svg width="20" height="6" viewBox="0 0 20 6" fill="none" xmlns="http://www.w3.org/2000/svg">
<path fill-rule="evenodd" clip-rule="evenodd" d="M17.2907 5.20925C16.0706 5.20925 15.0814 4.22004 15.0814 2.99995C15.0814 1.77986 16.0706 0.790649 17.2907 0.790649C18.5108 0.790649 19.5 1.77986 19.5 2.99995C19.5 4.22004 18.5108 5.20925 17.2907 5.20925Z" fill="black"/>
<path fill-rule="evenodd" clip-rule="evenodd" d="M9.99999 5.20925C8.7799 5.20925 7.79068 4.22004 7.79068 2.99995C7.79068 1.77986 8.7799 0.790649 9.99999 0.790649C11.2201 0.790649 12.2093 1.77986 12.2093 2.99995C12.2093 4.22004 11.2201 5.20925 9.99999 5.20925Z" fill="black"/>
<path fill-rule="evenodd" clip-rule="evenodd" d="M2.70928 5.20925C1.48919 5.20925 0.499974 4.22004 0.499974 2.99995C0.499974 1.77986 1.48919 0.790649 2.70928 0.790649C3.92936 0.790649 4.91858 1.77986 4.91858 2.99995C4.91858 4.22004 3.92936 5.20925 2.70928 5.20925Z" fill="black"/>
</svg>
