<?xml version="1.0" encoding="UTF-8"?>
<svg id="Layer_1" data-name="Layer 1" xmlns="http://www.w3.org/2000/svg" version="1.1" viewBox="0 0 29 23">
  <defs>
    <style>
      .cls-1 {
        fill: #000;
        stroke: #000;
        stroke-width: 2px;
      }
    </style>
  </defs>
  <path class="cls-1" d="M1.3,12.2l9.1,9.5c.4.4,1,.4,1.4,0,.4-.4.4-1.1,0-1.5l-7.4-7.7h22.7c.5,0,1-.5,1-1s-.5-1-1-1H4.4l7.4-7.7c.4-.4.4-1.1,0-1.5-.2-.2-.5-.3-.7-.3s-.5,0-.7.3L1.3,10.8c-.2.2-.3.4-.3.7s.1.5.3.7Z"/>
</svg>