<svg width="16" height="17" viewBox="0 0 16 17" fill="none" xmlns="http://www.w3.org/2000/svg">
<g clip-path="url(#clip0_545_1505)">
<path d="M12.7492 9.62531C12.5683 9.62531 12.3873 9.55946 12.2447 9.4258C11.9476 9.14767 11.9319 8.68084 12.2112 8.38403L13.6935 6.80467C14.2295 6.26904 14.5246 5.55848 14.5246 4.80467C14.5246 4.05086 14.2295 3.3403 13.6935 2.80467C13.1574 2.26904 12.4463 1.9742 11.6919 1.9742C10.9375 1.9742 10.2313 2.26708 9.69521 2.80074L8.17557 4.37813C7.89328 4.67101 7.42608 4.67985 7.13297 4.39779C6.83986 4.11573 6.83101 3.64889 7.1133 3.35602L8.64769 1.76388C9.4621 0.948157 10.544 0.5 11.6919 0.5C12.8397 0.5 13.9217 0.948157 14.7361 1.7629C15.5505 2.57666 16 3.65774 16 4.80467C16 5.9516 15.5544 7.02482 14.7449 7.83759L13.2873 9.39238C13.1417 9.54767 12.946 9.62531 12.7492 9.62531Z" fill="white"/>
<path d="M4.29532 16.5C3.14649 16.5 2.06553 16.0518 1.25112 15.2371C-0.417039 13.5585 -0.417039 10.8312 1.24916 9.15454L2.71863 7.69607C3.00781 7.40909 3.47501 7.41105 3.76222 7.7C4.04943 7.98894 4.04746 8.45577 3.75829 8.74275L2.29274 10.1973C1.19998 11.297 1.19998 13.0926 2.29668 14.1963C2.83076 14.73 3.5419 15.0258 4.29631 15.0258C5.05072 15.0258 5.76185 14.731 6.2979 14.1953L7.84214 12.6523C8.13033 12.3644 8.59753 12.3644 8.88572 12.6523C9.17391 12.9403 9.17391 13.4071 8.88572 13.6951L7.34149 15.2381C6.52708 16.0518 5.44514 16.501 4.29729 16.501L4.29532 16.5Z" fill="white"/>
<path d="M4.54617 12.7211C4.35633 12.7211 4.16749 12.6484 4.0229 12.5039C3.73569 12.2149 3.73667 11.7481 4.02585 11.4611L11.1569 4.37514C11.446 4.08817 11.9132 4.08915 12.2004 4.37809C12.4876 4.66704 12.4867 5.13387 12.1975 5.42084L5.06648 12.5068C4.92288 12.6503 4.73403 12.7211 4.54617 12.7211Z" fill="white"/>
</g>
<defs>
<clipPath id="clip0_545_1505">
<rect width="16" height="16" fill="white" transform="translate(0 0.5)"/>
</clipPath>
</defs>
</svg>
