<?xml version="1.0" encoding="UTF-8"?>
<svg id="Layer_1" data-name="Layer 1" xmlns="http://www.w3.org/2000/svg" version="1.1" viewBox="0 0 51 51">
  <defs>
    <style>
      .cls-1 {
        fill: #a5a5a5;
        stroke-width: 0px;
      }
    </style>
  </defs>
  <path class="cls-1" d="M45,0H6C2.7,0,0,2.7,0,6v38.9c0,3.3,2.7,6,6,6h38.9c3.3,0,6-2.7,6-6V6c0-3.3-2.7-6-6-6ZM6,3.2h38.9c1.6,0,2.8,1.3,2.8,2.8v32.9L23.9,15.1c-1.2-1.2-2.8-1.9-4.5-1.9s-3.3.7-4.5,1.9L3.2,26.8V6c0-1.6,1.3-2.8,2.8-2.8ZM45,47.8H6c-1.6,0-2.8-1.3-2.8-2.8v-13.7l14-14c.6-.6,1.4-.9,2.3-.9s1.7.3,2.3.9l26.1,26.1v1.5c0,1.6-1.3,2.8-2.8,2.8ZM37.9,19.5c3.4,0,6.1-2.8,6.1-6.1s-2.8-6.1-6.1-6.1-6.1,2.8-6.1,6.1,2.8,6.1,6.1,6.1ZM37.9,10.4c1.6,0,3,1.3,3,3s-1.3,3-3,3-3-1.3-3-3,1.3-3,3-3Z"/>
</svg>