<svg width="190" height="169" viewBox="0 0 190 169" fill="none" xmlns="http://www.w3.org/2000/svg">
<rect width="190" height="169" rx="5" fill="#F9F9F9"/>
<path d="M114.972 60H76.0282C72.7044 60 70 62.7046 70 66.0282V104.972C70 108.296 72.7046 111 76.0282 111H114.972C118.296 111 121 108.295 121 104.972V66.0282C120.999 62.7037 118.296 60 114.972 60ZM76.0282 63.1874H114.972C116.538 63.1874 117.813 64.4615 117.813 66.0285V98.9682L93.9478 75.1032C92.7413 73.8966 91.1319 73.2322 89.4166 73.2322C87.7014 73.2322 86.0916 73.8964 84.8854 75.1032L73.1871 86.8021V66.0285C73.1871 64.4615 74.4613 63.1874 76.0282 63.1874ZM114.972 107.813H76.0282C74.4619 107.813 73.1871 106.538 73.1871 104.971V91.3093L87.1397 77.3568C87.7443 76.7521 88.5528 76.4189 89.4171 76.4189C90.2813 76.4189 91.0899 76.7521 91.6945 77.3568L117.812 103.474V104.97C117.812 106.538 116.538 107.813 114.972 107.813ZM107.923 79.4996C111.307 79.4996 114.061 76.746 114.061 73.3611C114.061 69.9764 111.307 67.2226 107.923 67.2226C104.538 67.2226 101.785 69.9762 101.785 73.3611C101.785 76.7456 104.538 79.4996 107.923 79.4996ZM107.923 70.4108C109.55 70.4108 110.873 71.7346 110.873 73.3611C110.873 74.9877 109.549 76.3115 107.923 76.3115C106.295 76.3115 104.972 74.9877 104.972 73.3611C104.972 71.7346 106.295 70.4108 107.923 70.4108Z" fill="black"/>
</svg>
