<?xml version="1.0" encoding="UTF-8"?>
<svg id="Layer_1" data-name="Layer 1" xmlns="http://www.w3.org/2000/svg" xmlns:xlink="http://www.w3.org/1999/xlink" version="1.1" viewBox="0 0 255 153">
  <defs>
    <style>
      .cls-1 {
        clip-path: url(#clippath);
      }

      .cls-2 {
        fill: none;
      }

      .cls-2, .cls-3, .cls-4, .cls-5 {
        stroke-width: 0px;
      }

      .cls-3 {
        fill: #000;
      }

      .cls-4 {
        fill: #f2f2f2;
      }

      .cls-5 {
        fill: #fff;
      }
    </style>
    <clipPath id="clippath">
      <rect class="cls-2" x="112.3" y="61.3" width="30.5" height="30.5"/>
    </clipPath>
  </defs>
  <rect class="cls-4" width="255" height="153"/>
  <g>
    <rect class="cls-5" x="97.8" y="46.8" width="59.5" height="59.5" rx="17.9" ry="17.9"/>
    <g class="cls-1">
      <path class="cls-3" d="M121.7,67c2.1,0,3.7,1.8,3.7,3.9s-1.6,3.9-3.7,3.9-3.7-1.8-3.7-3.9,1.6-3.9,3.7-3.9ZM121.7,72.9c1,0,1.9-.9,1.9-1.9s-.9-1.9-1.9-1.9-1.9.9-1.9,1.9.9,1.9,1.9,1.9ZM140.9,61.3c1,0,1.9.9,1.9,1.9v26.6c0,1-.9,1.9-1.9,1.9h-26.8c-1,0-1.9-.9-1.9-1.9v-26.8c0-1,.9-1.9,1.9-1.9h26.8ZM114.1,88.8c0,.3,0,.4.3.7-.1-.1-.3-.4-.3-.7ZM140.9,88.8v-2.8l-7-7c-.4-.4-1-.4-1.3,0l-5.7,5.7c-1,1-1.6,1-2.7,0l-1.8-1.8c-.4-.4-1-.4-1.3,0l-6.7,6.7c.1.1.4.3.7.3h24.8c.6,0,.9-.4.9-.9h0ZM140.9,83.3v-19.2c0-.6-.4-.9-.9-.9h-24.8c-.6,0-.9.4-.9.9v23.1l6.2-6.2c.7-.7,1.9-.7,2.7,0l2.5,2.5,6.2-6.2c.7-.7,1.9-.7,2.7,0l6.2,6.2h0Z"/>
    </g>
  </g>
</svg>