<?xml version="1.0" encoding="UTF-8"?>
<svg id="Layer_1" data-name="Layer 1" xmlns="http://www.w3.org/2000/svg" xmlns:xlink="http://www.w3.org/1999/xlink" version="1.1" viewBox="0 0 134.7 55.2">
  <defs>
    <style>
      .cls-1 {
        fill: #f1bb45;
      }

      .cls-1, .cls-2 {
        stroke-width: 0px;
      }

      .cls-3 {
        filter: url(#drop-shadow-1);
      }

      .cls-2 {
        fill: #fff;
      }
    </style>
    <filter id="drop-shadow-1" filterUnits="userSpaceOnUse">
      <feOffset dx="1" dy="2"/>
      <feGaussianBlur result="blur" stdDeviation="2"/>
      <feFlood flood-color="#000" flood-opacity=".1"/>
      <feComposite in2="blur" operator="in"/>
      <feComposite in="SourceGraphic"/>
    </filter>
  </defs>
  <g>
    <path class="cls-2" d="M80.3,23.9c-1.3,0-2.4-.3-3.5-.7-1.1-.5-2.1-1.1-2.8-2-.8-.9-1.3-1.9-1.6-3.1l3.7-1.3c.4,1.1.9,1.9,1.7,2.4.8.6,1.6.8,2.6.8s1.6-.1,2.2-.4,1.1-.7,1.4-1.3.5-1.3.5-2.1-.2-1.5-.5-2-.8-1-1.4-1.3-1.3-.5-2.2-.5-.8,0-1.2.1c-.4,0-.8.2-1.1.3l-.9-2,6-6.7h-9.4V.5h14.1v3.5l-6.1,6.9v-1.6c1.5,0,2.7.3,3.7.9,1,.6,1.8,1.4,2.4,2.4s.8,2.2.8,3.6-.4,2.8-1.1,4-1.7,2.1-3,2.8c-1.3.7-2.7,1-4.3,1h0Z"/>
    <path class="cls-2" d="M99.5,24.1c-1.6,0-2.9-.4-4.1-1-1.2-.7-2.1-1.6-2.8-2.7-.7-1.1-1-2.5-1-3.9s0-1.5.3-2.2c.2-.7.5-1.5.9-2.4.4-.8,1-1.8,1.9-2.8l6.5-8.3h5l-7.9,10-.7-.7c.3-.2.6-.4.9-.5s.6-.2.9-.3h1c1.4,0,2.6.3,3.7,1,1.1.6,1.9,1.5,2.6,2.6.6,1.1.9,2.4.9,3.7s-.4,2.8-1.1,4-1.6,2.1-2.8,2.7c-1.2.7-2.6,1-4.1,1v-.2ZM99.5,20.3c.7,0,1.3-.1,1.9-.5.6-.3,1-.8,1.4-1.4.3-.6.5-1.3.5-2s-.2-1.5-.5-2c-.3-.6-.8-1-1.3-1.3-.6-.3-1.2-.5-1.9-.5s-1.3.1-1.9.5c-.6.3-1,.8-1.4,1.3-.3.6-.5,1.2-.5,2s.2,1.4.5,2,.8,1.1,1.4,1.4,1.2.5,1.9.5h0Z"/>
    <path class="cls-2" d="M119.7,24.3c-1.8,0-3.4-.5-4.8-1.5s-2.4-2.4-3.2-4.2c-.8-1.8-1.1-3.9-1.1-6.2s.4-4.5,1.2-6.2c.8-1.8,1.9-3.1,3.3-4.1s3-1.5,4.8-1.4c1.9,0,3.5.5,4.8,1.5,1.4,1,2.4,2.4,3.2,4.2.8,1.8,1.1,3.9,1.1,6.2s-.4,4.4-1.2,6.2-1.9,3.2-3.2,4.1c-1.4,1-3,1.5-4.9,1.5h0ZM119.7,20.5c1.1,0,1.9-.3,2.7-1,.7-.6,1.3-1.6,1.7-2.8.4-1.2.6-2.6.6-4.3s-.2-3.1-.6-4.3c-.4-1.2-1-2.1-1.7-2.8-.7-.7-1.6-1-2.7-1s-1.9.3-2.7.9c-.7.6-1.3,1.6-1.7,2.8-.4,1.2-.6,2.6-.6,4.3s.2,3.1.6,4.3,1,2.1,1.7,2.8c.7.7,1.6,1,2.7,1h0Z"/>
    <path class="cls-2" d="M80.5,54.8c-1.7,0-3-.5-4-1.5-.9-1-1.4-2.4-1.4-4.1v-9.2h-3.1v-2.9h.7c.8,0,1.4-.2,1.8-.7s.7-1.1.7-1.9v-1.4h3.1v4h3.9v2.9h-4v9.1c0,.6,0,1.1.2,1.5s.5.8.9,1c.4.3,1,.4,1.7.4h1.2v2.7c-.3,0-.6,0-1,0h-.9.2Z"/>
    <path class="cls-2" d="M94,55.1c-1.7,0-3.2-.4-4.5-1.2s-2.4-1.9-3.2-3.3c-.8-1.4-1.2-3-1.2-4.7s.4-3.3,1.2-4.7c.8-1.4,1.9-2.4,3.3-3.2s2.9-1.2,4.6-1.2,3.2.4,4.6,1.2,2.4,1.9,3.2,3.3c.8,1.4,1.2,2.9,1.1,4.7,0,1.8-.4,3.4-1.3,4.7-.8,1.4-1.9,2.4-3.3,3.2s-2.9,1.2-4.5,1.1h0ZM94,52.2c1.1,0,2.1-.3,3-.8s1.6-1.3,2.1-2.2.8-2,.8-3.2-.2-2.2-.7-3.2c-.5-.9-1.2-1.7-2.1-2.2s-1.9-.8-3-.8-2.1.3-2.9.8c-.9.5-1.6,1.3-2.1,2.2s-.8,2-.8,3.1.2,2.2.8,3.2c.5,1,1.2,1.7,2.1,2.3.9.5,1.9.8,2.9.8h-.1Z"/>
    <path class="cls-2" d="M113.2,55.2c-1.3,0-2.4-.3-3.4-.9-1-.6-1.8-1.4-2.3-2.5s-.8-2.3-.8-3.6v-11h3.2v10.6c0,.9,0,1.6.4,2.3s.8,1.2,1.5,1.5c.6.4,1.4.6,2.2.6s1.6-.2,2.2-.5c.6-.4,1.1-.9,1.5-1.6.4-.7.5-1.5.6-2.5v-10.4h3.1l-.2,17.5h-3v-3.4l.5.3c-.4,1.1-1.1,2-2.1,2.6s-2.1.9-3.4.9h0Z"/>
    <path class="cls-2" d="M125.8,55l.2-17.5h3v3.2l-.3-.5c.4-1,1.1-1.7,1.9-2.2.8-.5,1.9-.7,3.1-.7h1.1v2.9h-1.5c-1.2,0-2.2.3-3,1.1s-1.2,1.8-1.2,3.2v10.4h-3.3Z"/>
  </g>
  <g class="cls-3">
    <path class="cls-1" d="M52.1-.2l-6.6,6.6,6.6,6.6,6.6-6.6L52.1-.2Z"/>
    <path class="cls-1" d="M58.7,27.6l-6.6-6.6-3.3,3.4c-1.4,1.4-3.2,2.2-5.1,2.2h-5.7c-2,0-3.8-.8-5.1-2.2l-3.3-3.4-3.3,3.4c-1.4,1.4-3.2,2.2-5.1,2.2h-5.7c-2,0-3.8-.8-5.1-2.2-1.4-1.4-2.2-3.3-2.2-5.2v-4.2c0-2,.8-3.8,2.2-5.2,1.4-1.4,3.2-2.2,5.1-2.2h5.8c2,0,3.8.8,5.1,2.2l3.3,3.4,6.6-6.6L29.5,0l-3.3,3.4c-1.4,1.4-3.2,2.2-5.1,2.2h-5.7c-2,0-3.8-.8-5.1-2.2L6.9-.2.3,6.4l3.3,3.4c1.4,1.4,2.1,3.2,2.1,5.2v4.2c0,2-.8,3.8-2.2,5.2l-3.2,3.3,6.6,6.6,3.3-3.4c1.4-1.4,3.2-2.2,5.1-2.2h5.7c2,0,3.8.8,5.1,2.2l3.3,3.4,3.3-3.4c1.4-1.4,3.2-2.2,5.1-2.2h5.6c2,0,3.8.8,5.1,2.2,1.4,1.4,2.2,3.3,2.2,5.2v4.2c0,2-.8,3.8-2.2,5.2-1.4,1.4-3.2,2.2-5.1,2.2h-5.6c-2,0-3.8-.8-5.1-2.2l-3.3-3.4-6.6,6.6,6.6,6.6,3.2-3.3c1.4-1.4,3.2-2.2,5.1-2.2h5.8c2,0,3.8.8,5.1,2.2l3.2,3.3,6.6-6.6-3.3-3.4c-1.4-1.4-2.2-3.3-2.2-5.2v-4.2c0-2,.8-3.8,2.2-5.2l3.3-3.2Z"/>
    <path class="cls-1" d="M6.8,42.2L.3,48.8l6.6,6.6,6.6-6.6-6.6-6.6Z"/>
    <path class="cls-2" d="M52.1-.2l-6.6,6.6,6.6,6.6,6.6-6.6L52.1-.2Z"/>
    <path class="cls-2" d="M58.7,27.6l-6.6-6.6-3.3,3.4c-1.4,1.4-3.2,2.2-5.1,2.2h-5.7c-2,0-3.8-.8-5.1-2.2l-3.3-3.4-3.3,3.4c-1.4,1.4-3.2,2.2-5.1,2.2h-5.7c-2,0-3.8-.8-5.1-2.2-1.4-1.4-2.2-3.3-2.2-5.2v-4.2c0-2,.8-3.8,2.2-5.2,1.4-1.4,3.2-2.2,5.1-2.2h5.8c2,0,3.8.8,5.1,2.2l3.3,3.4,6.6-6.6L29.5,0l-3.3,3.4c-1.4,1.4-3.2,2.2-5.1,2.2h-5.7c-2,0-3.8-.8-5.1-2.2L6.9-.2.3,6.5l3.3,3.4c1.4,1.4,2.1,3.2,2.1,5.2v4.2c0,2-.8,3.8-2.2,5.2l-3.2,3.3,6.6,6.6,3.3-3.4c1.4-1.4,3.2-2.2,5.1-2.2h5.7c2,0,3.8.8,5.1,2.2l3.3,3.4,3.3-3.4c1.4-1.4,3.2-2.2,5.1-2.2h5.6c2,0,3.8.8,5.1,2.2,1.4,1.4,2.2,3.3,2.2,5.2v4.2c0,2-.8,3.8-2.2,5.2-1.4,1.4-3.2,2.2-5.1,2.2h-5.6c-2,0-3.8-.8-5.1-2.2l-3.3-3.4-6.6,6.6,6.6,6.6,3.2-3.3c1.4-1.4,3.2-2.2,5.1-2.2h5.8c2,0,3.8.8,5.1,2.2l3.2,3.3,6.6-6.6-3.3-3.4c-1.4-1.4-2.2-3.3-2.2-5.2v-4.2c0-2,.8-3.8,2.2-5.2l3.3-3.2Z"/>
    <path class="cls-2" d="M6.8,42.2L.3,48.8l6.6,6.6,6.6-6.6-6.6-6.6Z"/>
  </g>
</svg>