<?xml version="1.0" encoding="UTF-8"?>
<svg id="Layer_1" data-name="Layer 1" xmlns="http://www.w3.org/2000/svg" version="1.1" viewBox="0 0 1080 1080">
  <defs>
    <style>
      .cls-1 {
        fill: #e22020;
        stroke-width: 0px;
      }
    </style>
  </defs>
  <path class="cls-1" d="M540,0C242.4,0,0,242.4,0,540s242.4,540,540,540,540-242.4,540-540S837.6,0,540,0ZM540,984c-244.8,0-444-199.2-444-444S295.2,96,540,96s444,199.2,444,444-199.2,444-444,444Z"/>
  <path class="cls-1" d="M600,249.6c0,33.1-26.9,60-60,60s-60-26.9-60-60,26.9-60,60-60,60,26.9,60,60"/>
  <path class="cls-1" d="M540,399.6c-26.4,0-48,21.6-48,48v396c0,26.4,21.6,48,48,48s48-21.6,48-48v-396c0-27.6-21.6-48-48-48h0Z"/>
</svg>