<?xml version="1.0" encoding="UTF-8"?>
<svg id="Layer_1" data-name="Layer 1" xmlns="http://www.w3.org/2000/svg" xmlns:xlink="http://www.w3.org/1999/xlink" version="1.1" viewBox="0 0 56 56">
  <defs>
    <style>
      .cls-1 {
        clip-path: url(#clippath);
      }

      .cls-2 {
        fill: none;
      }

      .cls-2, .cls-3, .cls-4 {
        stroke-width: 0px;
      }

      .cls-3 {
        fill: #ff7415;
      }

      .cls-4 {
        fill: #fff;
      }
    </style>
    <clipPath id="clippath">
      <rect class="cls-2" x=".8" y=".8" width="54.5" height="54.5"/>
    </clipPath>
  </defs>
  <g class="cls-1">
    <g>
      <g>
        <path class="cls-3" d="M28.2,47.1c-10.4,0-18.8-8.4-18.8-18.8S17.9,9.4,28.2,9.4s18.8,8.4,18.8,18.8-8.4,18.8-18.8,18.8Z"/>
        <path class="cls-3" d="M28.2,10.9c9.6,0,17.3,7.8,17.3,17.3s-7.8,17.3-17.3,17.3-17.3-7.8-17.3-17.3,7.8-17.3,17.3-17.3ZM28.2,7.9c-11.2,0-20.3,9.1-20.3,20.3s9.1,20.3,20.3,20.3,20.3-9.1,20.3-20.3S39.5,7.9,28.2,7.9Z"/>
        <path class="cls-3" d="M28.2,2.1c7,0,13.6,2.7,18.5,7.7,4.9,4.9,7.7,11.5,7.7,18.5s-2.7,13.6-7.7,18.5c-4.9,4.9-11.5,7.7-18.5,7.7s-13.6-2.7-18.5-7.7c-4.9-4.9-7.7-11.5-7.7-18.5s2.7-13.6,7.7-18.5c4.9-4.9,11.5-7.7,18.5-7.7ZM28.2,1C13.2,1,1,13.2,1,28.2s12.2,27.2,27.2,27.2,27.2-12.2,27.2-27.2S43.3,1,28.2,1Z"/>
      </g>
      <g>
        <path class="cls-4" d="M32.9,26.5c1.6,0,2.9-1.3,2.9-2.9s-1.3-2.9-2.9-2.9-2.9,1.3-2.9,2.9,1.3,2.9,2.9,2.9ZM32.9,22c.9,0,1.6.7,1.6,1.6s-.7,1.6-1.6,1.6-1.6-.7-1.6-1.6.7-1.6,1.6-1.6Z"/>
        <path class="cls-4" d="M23.4,38h10.5c2.9,0,5.2-2.3,5.2-5.2v-10.5c0-2.9-2.3-5.2-5.2-5.2h-10.5c-2.9,0-5.2,2.3-5.2,5.2v10.5c0,2.9,2.3,5.2,5.2,5.2ZM23.4,18.4h10.5c2.2,0,3.9,1.8,3.9,3.9v8.5l-10.5-4.3c-2.1-.8-4.4-.3-5.9,1.4l-1.9,2.2v-7.8c0-2.2,1.8-3.9,3.9-3.9h0ZM19.5,32l2.9-3.3c1.1-1.2,2.9-1.7,4.4-1l11,4.5v.5c0,2.2-1.8,3.9-3.9,3.9h-10.5c-2.2,0-3.9-1.8-3.9-3.9v-.7Z"/>
      </g>
    </g>
  </g>
</svg>