<?xml version="1.0" encoding="UTF-8"?>
<svg id="Layer_1" data-name="Layer 1" xmlns="http://www.w3.org/2000/svg" xmlns:xlink="http://www.w3.org/1999/xlink" version="1.1" viewBox="0 0 56 56">
  <defs>
    <style>
      .cls-1 {
        clip-path: url(#clippath);
      }

      .cls-2 {
        fill: none;
      }

      .cls-2, .cls-3, .cls-4 {
        stroke-width: 0px;
      }

      .cls-3 {
        fill: #3369ef;
      }

      .cls-4 {
        fill: #fff;
      }
    </style>
    <clipPath id="clippath">
      <rect class="cls-2" x=".8" y=".8" width="54.5" height="54.5"/>
    </clipPath>
  </defs>
  <g class="cls-1">
    <g>
      <path class="cls-3" d="M28,46.8c-10.4,0-18.8-8.4-18.8-18.8S17.6,9.2,28,9.2s18.8,8.4,18.8,18.8-8.4,18.8-18.8,18.8Z"/>
      <path class="cls-3" d="M28,10.6c9.6,0,17.4,7.8,17.4,17.4s-7.8,17.4-17.4,17.4-17.4-7.8-17.4-17.4,7.8-17.4,17.4-17.4ZM28,7.7c-11.2,0-20.3,9.1-20.3,20.3s9.1,20.3,20.3,20.3,20.3-9.1,20.3-20.3S39.2,7.7,28,7.7Z"/>
      <path class="cls-3" d="M28,1.8c7,0,13.6,2.7,18.5,7.7,4.9,4.9,7.7,11.5,7.7,18.5s-2.7,13.6-7.7,18.5c-4.9,4.9-11.5,7.7-18.5,7.7s-13.6-2.7-18.5-7.7c-4.9-5-7.7-11.5-7.7-18.5s2.7-13.6,7.7-18.5C14.4,4.6,21,1.8,28,1.8ZM28,.8C13,.8.8,13,.8,28s12.2,27.2,27.2,27.2,27.2-12.2,27.2-27.2S43,.8,28,.8Z"/>
      <path class="cls-3" d="M25.9,28.4v-1.3l2.3,1.3-2.3,1.3v-1.3Z"/>
      <path class="cls-3" d="M24.9,24.9h0c-.1,0-.2,0-.3.2,0,0-.1.2-.1.3v6c0,.2,0,.3.2.4,0,0,.2,0,.2,0s.2,0,.2,0l2.6-1.5,2.6-1.5c0,0,.2-.1.2-.3,0-.1,0-.2,0-.3,0-.1-.1-.2-.2-.3l-2.6-1.5-2.6-1.5c0,0-.2,0-.2,0h0Z"/>
      <path class="cls-4" d="M28,38.9l.2-.2c.3-.3,8.3-8.5,8.3-13.1s-3.8-8.5-8.5-8.5-8.5,3.8-8.5,8.5,7.9,12.8,8.3,13.1l.2.2ZM24.2,25.6c0-2.1,1.7-3.8,3.8-3.8s3.8,1.7,3.8,3.8-1.7,3.8-3.8,3.8-3.8-1.7-3.8-3.8Z"/>
    </g>
  </g>
</svg>