<?xml version="1.0" encoding="UTF-8"?>
<svg id="Layer_1" data-name="Layer 1" xmlns="http://www.w3.org/2000/svg" xmlns:xlink="http://www.w3.org/1999/xlink" version="1.1" viewBox="0 0 56 56">
  <defs>
    <style>
      .cls-1 {
        clip-path: url(#clippath);
      }

      .cls-2 {
        fill: none;
      }

      .cls-2, .cls-3, .cls-4 {
        stroke-width: 0px;
      }

      .cls-3 {
        fill: #f44040;
      }

      .cls-4 {
        fill: #fff;
      }
    </style>
    <clipPath id="clippath">
      <rect class="cls-2" x=".8" y=".8" width="54.5" height="54.5"/>
    </clipPath>
  </defs>
  <g class="cls-1">
    <g>
      <path class="cls-3" d="M28,46.8c-10.4,0-18.8-8.4-18.8-18.8S17.6,9.2,28,9.2s18.8,8.4,18.8,18.8-8.4,18.8-18.8,18.8Z"/>
      <path class="cls-3" d="M28,10.6c9.6,0,17.4,7.8,17.4,17.4s-7.8,17.4-17.4,17.4-17.4-7.8-17.4-17.4,7.8-17.4,17.4-17.4ZM28,7.7c-11.2,0-20.3,9.1-20.3,20.3s9.1,20.3,20.3,20.3,20.3-9.1,20.3-20.3S39.2,7.7,28,7.7Z"/>
      <path class="cls-3" d="M28,1.8c7,0,13.6,2.7,18.5,7.7,4.9,4.9,7.7,11.5,7.7,18.5s-2.7,13.6-7.7,18.5c-4.9,4.9-11.5,7.7-18.5,7.7s-13.6-2.7-18.5-7.7c-4.9-5-7.7-11.5-7.7-18.5s2.7-13.6,7.7-18.5C14.4,4.6,21,1.8,28,1.8ZM28,.8C13,.8.8,13,.8,28s12.2,27.2,27.2,27.2,27.2-12.2,27.2-27.2S43,.8,28,.8Z"/>
      <path class="cls-4" d="M26.6,33.3c-.2-.2-.4-.6-.4-1v-1.5c0-.5,0-.9.2-1.3.1-.3.4-.7.8-1l1.6-1.5c.4-.4.8-.8,1.1-1.1s.6-.7.8-1c.2-.3.4-.7.5-1.1.1-.4.2-.8.2-1.2,0-.6,0-1.1-.3-1.6-.2-.4-.5-.8-.8-1.1s-.7-.5-1.2-.7c-.4-.1-.9-.2-1.4-.2-1.1,0-1.9.2-2.5.8-.6.5-1,1.1-1.1,1.9,0,.4-.2.7-.5.9-.2.2-.5.3-.9.3s-.8-.1-1-.4c-.2-.2-.4-.6-.4-1s.1-1,.4-1.6c.3-.6.7-1.1,1.2-1.6.5-.5,1.2-.9,2-1.3.8-.3,1.7-.5,2.8-.5s1.7.1,2.5.4c.8.3,1.5.7,2.1,1.2.6.5,1.1,1.2,1.4,2,.3.8.5,1.6.5,2.6s0,1.3-.3,1.9c-.2.6-.5,1.1-.8,1.6s-.7,1-1.1,1.4c-.4.4-.8.8-1.2,1.2l-1,.9c-.3.3-.6.7-.7.9-.1.2-.2.7-.2,1.3v.3c0,.4-.1.7-.4,1-.2.2-.6.4-1,.4s-.7-.1-1-.4ZM29,39.4c-.3.3-.8.5-1.4.5s-1-.2-1.4-.5c-.3-.3-.5-.8-.5-1.4s.2-1,.5-1.4c.3-.3.8-.5,1.4-.5s1,.2,1.4.5.5.8.5,1.4-.2,1.1-.5,1.4Z"/>
    </g>
  </g>
</svg>