<?xml version="1.0" encoding="UTF-8"?>
<svg id="Layer_1" data-name="Layer 1" xmlns="http://www.w3.org/2000/svg" xmlns:xlink="http://www.w3.org/1999/xlink" version="1.1" viewBox="0 0 56 56">
  <defs>
    <style>
      .cls-1 {
        clip-path: url(#clippath);
      }

      .cls-2 {
        fill: none;
      }

      .cls-2, .cls-3 {
        stroke-width: 0px;
      }

      .cls-4 {
        fill: #fff;
        stroke: #14dba7;
        stroke-miterlimit: 10;
        stroke-width: .5px;
      }

      .cls-3 {
        fill: #14dba7;
      }
    </style>
    <clipPath id="clippath">
      <rect class="cls-2" x=".8" y=".8" width="54.5" height="54.5"/>
    </clipPath>
  </defs>
  <g class="cls-1">
    <g>
      <path class="cls-3" d="M28,46.8c-10.4,0-18.8-8.4-18.8-18.8S17.6,9.2,28,9.2s18.8,8.4,18.8,18.8-8.4,18.8-18.8,18.8Z"/>
      <path class="cls-3" d="M28,10.6c9.6,0,17.4,7.8,17.4,17.4s-7.8,17.4-17.4,17.4-17.4-7.8-17.4-17.4,7.8-17.4,17.4-17.4ZM28,7.7c-11.2,0-20.3,9.1-20.3,20.3s9.1,20.3,20.3,20.3,20.3-9.1,20.3-20.3S39.2,7.7,28,7.7Z"/>
      <path class="cls-3" d="M28,1.8c7,0,13.6,2.7,18.5,7.7,4.9,4.9,7.7,11.5,7.7,18.5s-2.7,13.6-7.7,18.5c-4.9,4.9-11.5,7.7-18.5,7.7s-13.6-2.7-18.5-7.7c-4.9-5-7.7-11.5-7.7-18.5s2.7-13.6,7.7-18.5C14.4,4.6,21,1.8,28,1.8ZM28,.8C13,.8.8,13,.8,28s12.2,27.2,27.2,27.2,27.2-12.2,27.2-27.2S43,.8,28,.8Z"/>
    </g>
  </g>
  <path class="cls-4" d="M37.4,20.5l-3.3-3.3c-.5-.5-1.1-.8-1.8-.8h-10.5c-1.4,0-2.6,1.2-2.6,2.6v19c0,1.4,1.2,2.6,2.6,2.6h13.8c1.4,0,2.6-1.2,2.6-2.6v-15.7c0-.7-.3-1.3-.8-1.8h0ZM32.8,18.4l3.3,3.3c.2.2.3.4.3.6h0c0,.1-3.5.1-3.5.1-.5,0-.9-.4-.9-.9v-3.5s.1,0,.1,0c.2,0,.4,0,.6.3h0ZM35.5,38.9h-13.8c-.5,0-.9-.4-.9-.9v-19c0-.5.4-.9.9-.9h8.6v3.5c0,1.4,1.2,2.6,2.6,2.6h3.5v13.8c0,.5-.4.9-.9.9ZM34.7,27.7c0,.5-.4.9-.9.9h-10.4c-.5,0-.9-.4-.9-.9s.4-.9.9-.9h10.4c.5,0,.9.4.9.9ZM22.6,24.2c0-.5.4-.9.9-.9h5.2c.5,0,.9.4.9.9s-.4.9-.9.9h-5.2c-.5,0-.9-.4-.9-.9ZM34.7,31.1c0,.5-.4.9-.9.9h-10.4c-.5,0-.9-.4-.9-.9s.4-.9.9-.9h10.4c.5,0,.9.4.9.9ZM34.7,34.6c0,.5-.4.9-.9.9h-10.4c-.5,0-.9-.4-.9-.9s.4-.9.9-.9h10.4c.5,0,.9.4.9.9Z"/>
</svg>