<?xml version="1.0" encoding="UTF-8"?>
<svg id="Layer_1" data-name="Layer 1" xmlns="http://www.w3.org/2000/svg" version="1.1" viewBox="0 0 218.6 218.6">
  <defs>
    <style>
      .cls-1 {
        fill: #000;
        stroke-width: 0px;
      }
    </style>
  </defs>
  <path class="cls-1" d="M6.5,6.5c-8.6,8.6-8.6,22.6,0,31.2l71.7,71.7L6.5,181c-8.6,8.6-8.6,22.6,0,31.2s22.6,8.6,31.2,0l71.7-71.7,71.7,71.7c8.6,8.6,22.6,8.6,31.2,0,8.6-8.6,8.6-22.6,0-31.2l-71.7-71.7,71.7-71.7c8.6-8.6,8.6-22.6,0-31.2s-22.6-8.6-31.2,0l-71.7,71.7L37.6,6.5C29-2.2,15.1-2.2,6.5,6.5h0Z"/>
</svg>